<svg id="svg" version="1.1" xmlns="http://www.w3.org/2000/svg" xmlns:xlink="http://www.w3.org/1999/xlink" width="400" height="400" viewBox="0, 0, 400,400"><g id="svgg"><path id="path0" d="M172.824 69.167 C 172.520 69.589,171.805 70.174,171.236 70.467 C 170.666 70.760,169.723 71.495,169.140 72.100 C 168.556 72.705,167.791 73.200,167.440 73.200 C 167.088 73.200,166.800 73.380,166.800 73.600 C 166.800 73.820,166.480 74.000,166.088 74.000 C 165.697 74.000,165.117 74.360,164.800 74.800 C 164.483 75.240,163.903 75.600,163.512 75.600 C 163.120 75.600,162.800 75.780,162.800 76.000 C 162.800 76.220,162.440 76.400,162.000 76.400 C 161.560 76.400,161.200 76.580,161.200 76.800 C 161.200 77.020,160.840 77.200,160.400 77.200 C 159.960 77.200,159.600 77.380,159.600 77.600 C 159.600 77.820,159.060 78.000,158.400 78.000 C 157.740 78.000,157.200 78.180,157.200 78.400 C 157.200 78.620,156.840 78.800,156.400 78.800 C 155.960 78.800,155.600 78.980,155.600 79.200 C 155.600 79.420,155.060 79.600,154.400 79.600 C 153.740 79.600,153.200 79.780,153.200 80.000 C 153.200 80.220,152.660 80.400,152.000 80.400 C 151.340 80.400,150.800 80.580,150.800 80.800 C 150.800 81.020,150.260 81.200,149.600 81.200 C 148.940 81.200,148.400 81.380,148.400 81.600 C 148.400 81.820,147.860 82.000,147.200 82.000 C 146.540 82.000,146.000 82.180,146.000 82.400 C 146.000 82.620,145.460 82.800,144.800 82.800 C 144.140 82.800,143.600 82.980,143.600 83.200 C 143.600 83.420,143.060 83.600,142.400 83.600 C 141.740 83.600,141.200 83.780,141.200 84.000 C 141.200 84.220,140.660 84.400,140.000 84.400 C 139.340 84.400,138.800 84.580,138.800 84.800 C 138.800 85.020,138.271 85.200,137.624 85.200 C 136.977 85.200,136.336 85.380,136.200 85.600 C 136.064 85.820,135.513 86.000,134.976 86.000 C 134.439 86.000,134.000 86.180,134.000 86.400 C 134.000 86.620,133.640 86.800,133.200 86.800 C 132.760 86.800,132.400 86.980,132.400 87.200 C 132.400 87.420,131.860 87.600,131.200 87.600 C 130.540 87.600,130.000 87.780,130.000 88.000 C 130.000 88.220,129.640 88.400,129.200 88.400 C 128.760 88.400,128.400 88.580,128.400 88.800 C 128.400 89.020,128.080 89.200,127.688 89.200 C 127.297 89.200,126.717 89.560,126.400 90.000 C 126.083 90.440,125.503 90.800,125.112 90.800 C 124.720 90.800,124.400 90.980,124.400 91.200 C 124.400 91.420,124.112 91.600,123.760 91.600 C 123.409 91.600,122.617 92.140,122.000 92.800 C 121.383 93.460,120.679 94.000,120.435 94.000 C 119.811 94.000,111.600 102.278,111.600 102.907 C 111.600 103.191,111.240 103.683,110.800 104.000 C 110.360 104.317,110.000 104.857,110.000 105.200 C 110.000 105.543,109.640 106.083,109.200 106.400 C 108.760 106.717,108.400 107.297,108.400 107.688 C 108.400 108.080,108.220 108.400,108.000 108.400 C 107.780 108.400,107.600 108.665,107.600 108.988 C 107.600 109.311,107.240 110.217,106.800 111.000 C 106.360 111.783,106.000 112.779,106.000 113.212 C 106.000 113.645,105.820 114.000,105.600 114.000 C 105.380 114.000,105.200 114.540,105.200 115.200 C 105.200 115.860,105.020 116.400,104.800 116.400 C 104.580 116.400,104.400 117.300,104.400 118.400 C 104.400 119.952,104.541 120.400,105.029 120.400 C 105.837 120.400,106.800 119.437,106.800 118.629 C 106.800 118.283,106.980 118.000,107.200 118.000 C 107.420 118.000,107.600 117.640,107.600 117.200 C 107.600 116.760,107.780 116.400,108.000 116.400 C 108.220 116.400,108.400 115.862,108.400 115.203 C 108.400 114.440,108.690 113.826,109.200 113.507 C 109.640 113.232,110.000 112.731,110.000 112.392 C 110.000 112.054,110.360 111.517,110.800 111.200 C 111.240 110.883,111.600 110.343,111.600 110.000 C 111.600 109.657,111.960 109.117,112.400 108.800 C 112.840 108.483,113.200 107.979,113.200 107.680 C 113.200 107.382,113.920 106.446,114.800 105.600 C 115.680 104.754,116.400 103.863,116.400 103.619 C 116.400 103.375,116.707 103.057,117.081 102.913 C 117.456 102.770,118.905 101.510,120.301 100.114 C 121.732 98.683,123.031 97.696,123.281 97.850 C 123.548 98.015,123.611 97.941,123.438 97.662 C 123.269 97.388,123.407 97.200,123.776 97.200 C 124.119 97.200,124.400 97.020,124.400 96.800 C 124.400 96.580,124.720 96.400,125.112 96.400 C 125.503 96.400,126.083 96.040,126.400 95.600 C 126.717 95.160,127.297 94.800,127.688 94.800 C 128.080 94.800,128.400 94.620,128.400 94.400 C 128.400 94.180,128.760 94.000,129.200 94.000 C 129.640 94.000,130.000 93.820,130.000 93.600 C 130.000 93.380,130.360 93.200,130.800 93.200 C 131.240 93.200,131.600 93.020,131.600 92.800 C 131.600 92.580,131.960 92.400,132.400 92.400 C 132.840 92.400,133.200 92.220,133.200 92.000 C 133.200 91.780,133.560 91.600,134.000 91.600 C 134.440 91.600,134.800 91.420,134.800 91.200 C 134.800 90.980,135.340 90.800,136.000 90.800 C 136.660 90.800,137.200 90.620,137.200 90.400 C 137.200 90.180,137.740 90.000,138.400 90.000 C 139.060 90.000,139.600 89.820,139.600 89.600 C 139.600 89.380,140.140 89.200,140.800 89.200 C 141.460 89.200,142.000 89.020,142.000 88.800 C 142.000 88.580,142.540 88.400,143.200 88.400 C 143.860 88.400,144.400 88.220,144.400 88.000 C 144.400 87.780,145.120 87.600,146.000 87.600 C 146.880 87.600,147.600 87.420,147.600 87.200 C 147.600 86.980,148.140 86.800,148.800 86.800 C 149.460 86.800,150.000 86.620,150.000 86.400 C 150.000 86.180,150.720 86.000,151.600 86.000 C 152.480 86.000,153.200 85.820,153.200 85.600 C 153.200 85.380,153.740 85.200,154.400 85.200 C 155.060 85.200,155.600 85.020,155.600 84.800 C 155.600 84.580,156.129 84.400,156.776 84.400 C 157.423 84.400,158.064 84.220,158.200 84.000 C 158.336 83.780,158.799 83.600,159.229 83.600 C 159.659 83.600,160.360 83.382,160.787 83.115 C 161.911 82.413,162.283 83.060,161.264 83.944 C 160.789 84.357,160.400 84.916,160.400 85.186 C 160.400 85.457,159.860 86.183,159.200 86.800 C 158.540 87.417,158.000 88.169,158.000 88.472 C 158.000 88.775,157.640 89.283,157.200 89.600 C 156.760 89.917,156.400 90.409,156.400 90.692 C 156.400 90.975,155.860 91.772,155.200 92.463 C 154.540 93.154,154.000 93.922,154.000 94.171 C 154.000 94.420,153.640 94.883,153.200 95.200 C 152.760 95.517,152.400 96.057,152.400 96.400 C 152.400 96.743,152.040 97.283,151.600 97.600 C 151.160 97.917,150.800 98.457,150.800 98.800 C 150.800 99.143,150.440 99.683,150.000 100.000 C 149.560 100.317,149.200 100.857,149.200 101.200 C 149.200 101.543,148.840 102.083,148.400 102.400 C 147.960 102.717,147.600 103.297,147.600 103.688 C 147.600 104.080,147.450 104.400,147.268 104.400 C 147.085 104.400,146.680 104.895,146.368 105.500 C 146.055 106.105,145.485 106.949,145.100 107.375 C 144.715 107.802,144.400 108.347,144.400 108.587 C 144.400 108.827,144.040 109.283,143.600 109.600 C 143.160 109.917,142.800 110.497,142.800 110.888 C 142.800 111.280,142.620 111.600,142.400 111.600 C 142.180 111.600,142.000 111.920,142.000 112.312 C 142.000 112.703,141.640 113.283,141.200 113.600 C 140.760 113.917,140.400 114.414,140.400 114.705 C 140.400 114.996,140.040 115.620,139.600 116.092 C 139.160 116.564,138.800 117.187,138.800 117.475 C 138.800 117.764,138.620 118.000,138.400 118.000 C 138.180 118.000,138.000 118.320,138.000 118.712 C 138.000 119.103,137.640 119.683,137.200 120.000 C 136.760 120.317,136.400 120.897,136.400 121.288 C 136.400 121.680,136.220 122.000,136.000 122.000 C 135.780 122.000,135.600 122.320,135.600 122.712 C 135.600 123.103,135.240 123.683,134.800 124.000 C 134.360 124.317,134.000 124.897,134.000 125.288 C 134.000 125.680,133.864 126.000,133.697 126.000 C 133.346 126.000,132.400 128.848,132.400 129.905 C 132.400 130.299,132.158 130.977,131.863 131.411 C 131.321 132.207,130.061 134.480,126.103 141.800 C 122.089 149.224,117.561 158.817,114.254 166.900 C 113.917 167.725,113.390 168.400,113.084 168.400 C 112.778 168.400,112.290 169.120,112.000 170.000 C 111.710 170.880,111.321 171.600,111.136 171.600 C 110.951 171.600,110.800 172.140,110.800 172.800 C 110.800 173.460,110.620 174.000,110.400 174.000 C 110.180 174.000,110.000 174.720,110.000 175.600 C 110.000 176.480,109.820 177.200,109.600 177.200 C 109.380 177.200,109.200 178.021,109.200 179.024 C 109.200 180.027,109.050 180.755,108.868 180.642 C 108.685 180.529,108.494 181.458,108.444 182.706 C 108.393 183.955,108.174 185.191,107.956 185.453 C 107.497 186.006,107.594 189.549,108.076 189.847 C 108.254 189.957,108.400 190.631,108.400 191.345 C 108.400 193.052,110.648 195.600,112.154 195.600 C 112.729 195.600,113.200 195.780,113.200 196.000 C 113.200 196.220,113.920 196.400,114.800 196.400 C 115.680 196.400,116.400 196.220,116.400 196.000 C 116.400 195.780,117.120 195.600,118.000 195.600 C 118.880 195.600,119.600 195.420,119.600 195.200 C 119.600 194.980,119.960 194.800,120.400 194.800 C 120.840 194.800,121.200 194.620,121.200 194.400 C 121.200 194.180,121.520 194.000,121.912 194.000 C 122.303 194.000,122.883 193.640,123.200 193.200 C 123.517 192.760,124.057 192.400,124.400 192.400 C 124.743 192.400,125.283 192.040,125.600 191.600 C 125.917 191.160,126.417 190.800,126.710 190.800 C 127.004 190.800,128.304 189.720,129.600 188.400 C 130.896 187.080,132.148 186.000,132.382 186.000 C 133.048 186.000,142.000 176.882,142.000 176.204 C 142.000 175.872,142.330 175.600,142.732 175.600 C 143.135 175.600,143.720 175.111,144.032 174.512 C 144.345 173.914,145.455 172.546,146.500 171.472 C 147.598 170.343,148.400 169.148,148.400 168.640 C 148.400 167.548,159.588 154.585,160.886 154.173 C 161.902 153.850,163.680 152.065,164.693 150.351 C 165.067 149.718,165.694 149.200,166.086 149.200 C 166.479 149.200,166.800 148.931,166.800 148.603 C 166.800 148.274,168.060 146.731,169.600 145.172 C 171.140 143.614,172.400 142.158,172.400 141.938 C 172.400 141.718,173.120 140.846,174.000 140.000 C 174.880 139.154,175.600 138.277,175.600 138.050 C 175.600 137.824,176.455 136.764,177.500 135.696 C 178.545 134.628,179.608 133.404,179.863 132.977 C 180.117 132.550,180.536 132.249,180.793 132.310 C 181.049 132.370,181.157 132.254,181.032 132.052 C 180.907 131.849,181.074 131.581,181.402 131.454 C 181.731 131.328,182.000 130.989,182.000 130.701 C 182.000 130.413,182.360 129.917,182.800 129.600 C 183.240 129.283,183.600 128.791,183.600 128.506 C 183.600 126.306,195.833 113.200,197.886 113.200 C 198.440 113.200,198.800 112.959,198.800 112.587 C 198.800 112.251,199.069 111.872,199.398 111.746 C 199.726 111.619,199.879 111.327,199.736 111.096 C 199.593 110.865,199.666 110.794,199.898 110.937 C 200.440 111.272,202.800 109.079,202.800 108.240 C 202.800 107.867,203.134 107.600,203.600 107.600 C 204.040 107.600,204.400 107.450,204.400 107.267 C 204.400 106.864,207.369 103.600,207.736 103.600 C 207.878 103.600,209.985 101.620,212.418 99.200 C 214.851 96.780,217.030 94.800,217.260 94.800 C 217.491 94.800,218.183 94.260,218.800 93.600 C 219.489 92.862,220.321 92.400,220.960 92.400 C 221.532 92.400,222.000 92.220,222.000 92.000 C 222.000 91.780,222.900 91.600,224.000 91.600 C 225.100 91.600,226.000 91.420,226.000 91.200 C 226.000 90.980,226.900 90.800,228.000 90.800 C 229.100 90.800,230.000 90.620,230.000 90.400 C 230.000 90.180,230.720 90.000,231.600 90.000 C 232.480 90.000,233.200 89.820,233.200 89.600 C 233.200 89.380,234.100 89.200,235.200 89.200 C 236.300 89.200,237.200 89.020,237.200 88.800 C 237.200 88.580,237.920 88.400,238.800 88.400 C 239.680 88.400,240.400 88.220,240.400 88.000 C 240.400 87.780,241.120 87.600,242.000 87.600 C 242.880 87.600,243.600 87.420,243.600 87.200 C 243.600 86.980,244.320 86.800,245.200 86.800 C 246.080 86.800,246.800 86.620,246.800 86.400 C 246.800 86.180,247.239 86.000,247.776 86.000 C 248.313 86.000,248.864 85.820,249.000 85.600 C 249.136 85.380,249.777 85.200,250.424 85.200 C 251.071 85.200,251.600 85.020,251.600 84.800 C 251.600 84.580,252.140 84.400,252.800 84.400 C 253.460 84.400,254.000 84.220,254.000 84.000 C 254.000 83.780,254.540 83.600,255.200 83.600 C 255.860 83.600,256.400 83.420,256.400 83.200 C 256.400 82.980,256.760 82.800,257.200 82.800 C 257.640 82.800,258.000 82.620,258.000 82.400 C 258.000 82.180,258.360 82.000,258.800 82.000 C 259.240 82.000,259.600 81.820,259.600 81.600 C 259.600 81.380,259.960 81.200,260.400 81.200 C 260.840 81.200,261.200 81.020,261.200 80.800 C 261.200 80.580,261.453 80.400,261.763 80.400 C 262.128 80.400,262.252 80.680,262.116 81.200 C 262.001 81.640,261.748 82.000,261.553 82.000 C 261.359 82.000,261.200 82.360,261.200 82.800 C 261.200 83.240,261.020 83.600,260.800 83.600 C 260.580 83.600,260.400 83.888,260.400 84.240 C 260.400 84.591,259.860 85.383,259.200 86.000 C 258.540 86.617,258.000 87.337,258.000 87.600 C 258.000 87.863,257.460 88.583,256.800 89.200 C 256.140 89.817,255.600 90.518,255.600 90.758 C 255.600 90.999,254.700 92.115,253.600 93.239 C 252.500 94.362,251.600 95.453,251.600 95.663 C 251.600 95.873,250.520 97.104,249.200 98.400 C 247.880 99.696,246.800 100.957,246.800 101.204 C 246.800 101.450,245.900 102.529,244.800 103.600 C 243.700 104.671,242.800 105.739,242.800 105.972 C 242.800 106.205,241.900 107.315,240.800 108.439 C 239.700 109.562,238.800 110.733,238.800 111.041 C 238.800 111.348,238.620 111.600,238.400 111.600 C 238.180 111.600,238.000 111.881,238.000 112.224 C 238.000 112.567,237.846 112.752,237.658 112.636 C 237.470 112.519,237.395 112.840,237.492 113.348 C 237.625 114.044,236.890 115.251,234.514 118.236 C 232.779 120.416,230.059 123.868,228.469 125.907 C 224.503 130.996,224.352 131.157,223.759 130.929 C 223.185 130.709,221.200 132.487,221.200 133.221 C 221.200 133.473,220.660 134.183,220.000 134.800 C 219.340 135.417,218.800 136.081,218.800 136.276 C 218.800 136.472,218.080 137.428,217.200 138.400 C 216.320 139.372,215.600 140.400,215.600 140.684 C 215.600 140.968,215.420 141.200,215.200 141.200 C 214.980 141.200,214.800 141.481,214.800 141.824 C 214.800 142.193,214.612 142.331,214.338 142.162 C 214.068 141.995,213.984 142.051,214.137 142.298 C 214.280 142.529,213.588 143.576,212.599 144.623 C 211.609 145.670,210.800 146.680,210.800 146.867 C 210.800 147.054,210.260 147.772,209.600 148.463 C 208.940 149.154,208.400 150.142,208.400 150.659 C 208.400 151.177,208.243 151.600,208.050 151.600 C 207.857 151.600,207.601 152.095,207.479 152.700 C 207.358 153.305,205.916 155.621,204.275 157.848 C 202.634 160.074,200.266 163.359,199.012 165.148 C 197.759 166.936,196.478 168.400,196.167 168.400 C 195.855 168.400,195.600 168.559,195.600 168.753 C 195.600 168.948,195.240 169.201,194.800 169.316 C 194.360 169.431,194.000 169.812,194.000 170.163 C 194.000 170.513,193.820 170.800,193.600 170.800 C 193.380 170.800,193.200 171.081,193.200 171.424 C 193.200 171.793,193.012 171.931,192.738 171.762 C 192.462 171.591,192.385 171.651,192.546 171.912 C 192.694 172.152,192.362 172.802,191.808 173.356 C 191.253 173.910,190.800 174.602,190.800 174.894 C 190.800 175.185,190.440 175.683,190.000 176.000 C 189.560 176.317,189.200 176.857,189.200 177.200 C 189.200 177.543,188.840 178.083,188.400 178.400 C 187.960 178.717,187.600 179.257,187.600 179.600 C 187.600 179.943,187.240 180.483,186.800 180.800 C 186.360 181.117,186.000 181.657,186.000 182.000 C 186.000 182.343,185.640 182.883,185.200 183.200 C 184.760 183.517,184.400 184.097,184.400 184.488 C 184.400 184.880,184.220 185.200,184.000 185.200 C 183.780 185.200,183.600 185.560,183.600 186.000 C 183.600 186.440,183.453 186.800,183.274 186.800 C 182.639 186.800,181.147 190.107,181.585 190.545 C 181.813 190.773,182.000 191.644,182.000 192.480 C 182.000 193.316,182.180 194.000,182.400 194.000 C 182.620 194.000,182.800 194.283,182.800 194.629 C 182.800 195.520,183.793 196.400,184.800 196.400 C 185.766 196.400,186.800 195.530,186.800 194.717 C 186.800 194.420,187.160 193.917,187.600 193.600 C 188.040 193.283,188.400 192.743,188.400 192.400 C 188.400 192.057,188.760 191.517,189.200 191.200 C 189.640 190.883,190.000 190.343,190.000 190.000 C 190.000 189.657,190.360 189.117,190.800 188.800 C 191.240 188.483,191.600 187.943,191.600 187.600 C 191.600 187.257,191.960 186.717,192.400 186.400 C 192.840 186.083,193.200 185.543,193.200 185.200 C 193.200 184.857,193.560 184.317,194.000 184.000 C 194.440 183.683,194.800 183.175,194.800 182.872 C 194.800 182.569,195.340 181.817,196.000 181.200 C 196.660 180.583,197.200 179.831,197.200 179.528 C 197.200 179.225,197.560 178.717,198.000 178.400 C 198.440 178.083,198.800 177.591,198.800 177.308 C 198.800 177.025,199.340 176.228,200.000 175.537 C 200.660 174.846,201.200 174.038,201.200 173.741 C 201.200 173.443,201.380 173.200,201.600 173.200 C 201.820 173.200,202.000 172.919,202.000 172.576 C 202.000 172.207,202.188 172.069,202.462 172.238 C 202.727 172.402,202.816 172.349,202.670 172.113 C 202.531 171.888,202.769 171.297,203.200 170.800 C 203.631 170.303,203.884 169.736,203.762 169.538 C 203.640 169.341,203.689 169.206,203.870 169.237 C 204.631 169.370,205.200 169.172,205.200 168.776 C 205.200 168.543,205.020 168.464,204.800 168.600 C 204.580 168.736,204.400 168.506,204.400 168.088 C 204.400 167.023,206.455 164.432,207.313 164.415 C 208.102 164.398,210.800 161.890,210.800 161.174 C 210.800 160.925,211.340 160.217,212.000 159.600 C 212.660 158.983,213.200 158.270,213.200 158.014 C 213.200 157.758,214.100 156.671,215.200 155.600 C 216.300 154.529,217.200 153.446,217.200 153.195 C 217.200 152.943,217.920 152.046,218.800 151.200 C 219.680 150.354,220.400 149.490,220.400 149.280 C 220.400 149.069,221.120 148.155,222.000 147.248 C 222.880 146.341,223.600 145.279,223.600 144.889 C 223.600 141.946,252.430 113.200,255.381 113.200 C 256.284 113.200,256.412 113.069,256.191 112.372 C 255.992 111.745,256.131 111.491,256.764 111.325 C 257.224 111.205,257.600 110.944,257.600 110.746 C 257.600 110.547,258.050 110.498,258.600 110.636 C 259.216 110.790,259.600 110.717,259.600 110.443 C 259.600 110.200,259.843 110.000,260.141 110.000 C 260.438 110.000,261.246 109.460,261.937 108.800 C 262.628 108.140,263.368 107.600,263.582 107.600 C 263.797 107.600,264.165 107.240,264.400 106.800 C 264.635 106.360,265.092 106.000,265.414 106.000 C 265.736 106.000,266.000 105.820,266.000 105.600 C 266.000 105.380,266.288 105.200,266.640 105.200 C 266.991 105.200,267.783 104.660,268.400 104.000 C 269.017 103.340,269.769 102.800,270.072 102.800 C 270.375 102.800,270.883 102.440,271.200 102.000 C 271.517 101.560,272.057 101.200,272.400 101.200 C 272.743 101.200,273.283 100.840,273.600 100.400 C 273.917 99.960,274.457 99.600,274.800 99.600 C 275.143 99.600,275.683 99.240,276.000 98.800 C 276.317 98.360,276.897 98.000,277.288 98.000 C 277.680 98.000,278.000 97.820,278.000 97.600 C 278.000 97.380,278.236 97.200,278.525 97.200 C 278.813 97.200,279.436 96.840,279.908 96.400 C 280.380 95.960,281.044 95.600,281.383 95.600 C 281.722 95.600,282.000 95.420,282.000 95.200 C 282.000 94.980,282.360 94.800,282.800 94.800 C 283.240 94.800,283.600 94.620,283.600 94.400 C 283.600 94.180,283.825 93.996,284.100 93.991 C 284.375 93.986,285.050 93.630,285.600 93.200 C 286.150 92.770,287.005 92.414,287.500 92.409 C 287.995 92.404,288.400 92.220,288.400 92.000 C 288.400 91.780,288.760 91.600,289.200 91.600 C 289.640 91.600,290.000 91.420,290.000 91.200 C 290.000 90.980,290.360 90.800,290.800 90.800 C 291.240 90.800,291.600 90.620,291.600 90.400 C 291.600 90.180,291.960 90.000,292.400 90.000 C 292.840 90.000,293.200 89.820,293.200 89.600 C 293.200 89.380,293.545 89.200,293.967 89.200 C 294.388 89.200,294.793 89.022,294.867 88.803 C 294.940 88.585,295.482 88.367,296.071 88.319 C 296.660 88.270,297.055 88.088,296.948 87.915 C 296.840 87.742,297.213 87.600,297.776 87.600 C 298.339 87.600,298.800 87.420,298.800 87.200 C 298.800 86.980,299.520 86.800,300.400 86.800 C 301.280 86.800,302.000 86.620,302.000 86.400 C 302.000 86.180,302.540 86.000,303.200 86.000 C 303.860 86.000,304.400 85.820,304.400 85.600 C 304.400 85.380,305.105 85.200,305.967 85.200 C 306.828 85.200,307.593 85.023,307.667 84.806 C 307.740 84.590,308.655 84.381,309.700 84.342 C 310.745 84.302,311.600 84.119,311.600 83.935 C 311.600 83.527,315.351 83.484,315.755 83.888 C 315.913 84.046,316.798 84.226,317.721 84.288 C 318.645 84.350,319.460 84.580,319.533 84.800 C 319.607 85.020,319.939 85.200,320.273 85.200 C 320.606 85.200,321.383 85.740,322.000 86.400 C 322.617 87.060,323.409 87.600,323.760 87.600 C 324.204 87.600,324.400 87.967,324.400 88.800 C 324.400 89.460,324.580 90.000,324.800 90.000 C 325.033 90.000,325.200 91.333,325.200 93.200 C 325.200 95.067,325.033 96.400,324.800 96.400 C 324.580 96.400,324.400 96.940,324.400 97.600 C 324.400 98.260,324.220 98.800,324.000 98.800 C 323.780 98.800,323.600 99.160,323.600 99.600 C 323.600 100.040,323.420 100.400,323.200 100.400 C 322.980 100.400,322.800 100.720,322.800 101.112 C 322.800 101.503,322.440 102.083,322.000 102.400 C 321.560 102.717,321.200 103.297,321.200 103.688 C 321.200 104.080,321.050 104.400,320.868 104.400 C 320.685 104.400,320.280 104.891,319.968 105.492 C 319.280 106.814,305.004 121.200,304.379 121.200 C 304.136 121.200,303.246 121.920,302.400 122.800 C 301.554 123.680,300.671 124.400,300.437 124.400 C 300.202 124.400,299.756 125.009,299.445 125.753 C 298.623 127.721,293.656 130.976,284.304 135.676 C 279.639 138.020,278.603 138.399,277.450 138.183 C 276.630 138.029,275.985 138.101,275.822 138.364 C 275.674 138.604,275.023 138.800,274.376 138.800 C 273.729 138.800,273.200 138.980,273.200 139.200 C 273.200 139.420,272.660 139.600,272.000 139.600 C 271.340 139.600,270.800 139.780,270.800 140.000 C 270.800 140.220,270.260 140.400,269.600 140.400 C 268.940 140.400,268.400 140.580,268.400 140.800 C 268.400 141.020,267.860 141.200,267.200 141.200 C 266.540 141.200,266.000 141.380,266.000 141.600 C 266.000 141.820,265.280 142.000,264.400 142.000 C 263.520 142.000,262.800 142.180,262.800 142.400 C 262.800 142.620,261.915 142.800,260.833 142.800 C 259.752 142.800,258.807 142.970,258.733 143.179 C 258.660 143.387,257.755 143.600,256.722 143.652 C 255.689 143.704,254.935 143.894,255.045 144.074 C 255.156 144.253,254.193 144.400,252.904 144.400 C 251.570 144.400,250.346 144.614,250.063 144.897 C 249.668 145.292,249.489 145.272,249.183 144.797 C 248.891 144.342,248.725 144.316,248.483 144.690 C 247.638 145.993,246.246 145.441,245.116 143.354 C 242.008 137.619,236.489 135.675,232.832 139.027 C 228.814 142.708,232.655 147.665,240.002 148.281 C 244.033 148.619,244.233 149.688,242.011 158.995 C 241.590 160.758,240.961 163.444,240.614 164.964 C 240.219 166.688,239.634 168.075,239.057 168.652 C 238.416 169.293,238.112 170.096,238.066 171.265 C 238.030 172.193,237.815 173.067,237.589 173.207 C 237.020 173.558,237.010 187.337,237.578 187.526 C 237.810 187.603,238.000 188.012,238.000 188.433 C 238.000 188.855,238.180 189.200,238.400 189.200 C 238.620 189.200,238.800 189.476,238.800 189.813 C 238.800 190.609,241.391 193.200,242.187 193.200 C 242.524 193.200,242.800 193.380,242.800 193.600 C 242.800 193.820,243.160 194.000,243.600 194.000 C 244.040 194.000,244.400 194.180,244.400 194.400 C 244.400 194.648,246.533 194.800,250.000 194.800 C 253.467 194.800,255.600 194.648,255.600 194.400 C 255.600 194.180,256.320 194.000,257.200 194.000 C 258.080 194.000,258.800 193.820,258.800 193.600 C 258.800 193.380,259.340 193.200,260.000 193.200 C 260.660 193.200,261.200 193.020,261.200 192.800 C 261.200 192.580,261.639 192.400,262.176 192.400 C 262.713 192.400,263.264 192.220,263.400 192.000 C 263.536 191.780,263.997 191.600,264.424 191.600 C 264.851 191.600,265.200 191.420,265.200 191.200 C 265.200 190.980,265.560 190.800,266.000 190.800 C 266.440 190.800,266.800 190.620,266.800 190.400 C 266.800 190.180,267.160 190.000,267.600 190.000 C 268.040 190.000,268.400 189.820,268.400 189.600 C 268.400 189.380,268.760 189.200,269.200 189.200 C 269.640 189.200,270.000 189.020,270.000 188.800 C 270.000 188.580,270.320 188.400,270.712 188.400 C 271.103 188.400,271.683 188.040,272.000 187.600 C 272.317 187.160,272.897 186.800,273.288 186.800 C 273.680 186.800,274.000 186.620,274.000 186.400 C 274.000 186.180,274.320 186.000,274.712 186.000 C 275.103 186.000,275.683 185.640,276.000 185.200 C 276.317 184.760,276.857 184.400,277.200 184.400 C 277.543 184.400,278.083 184.040,278.400 183.600 C 278.717 183.160,279.257 182.800,279.600 182.800 C 279.943 182.800,280.483 182.440,280.800 182.000 C 281.117 181.560,281.625 181.200,281.928 181.200 C 282.231 181.200,282.983 180.660,283.600 180.000 C 284.217 179.340,284.937 178.800,285.200 178.800 C 285.463 178.800,286.183 178.260,286.800 177.600 C 287.417 176.940,288.101 176.400,288.320 176.400 C 288.539 176.400,289.638 175.500,290.761 174.400 C 291.885 173.300,292.986 172.400,293.208 172.400 C 293.856 172.400,299.600 166.474,299.600 165.806 C 299.600 164.770,297.625 165.090,296.460 166.315 C 295.877 166.929,294.770 167.865,294.000 168.396 C 293.230 168.928,292.309 169.686,291.953 170.081 C 291.597 170.476,291.124 170.800,290.901 170.800 C 290.679 170.800,289.755 171.520,288.848 172.400 C 287.941 173.280,287.046 174.000,286.859 174.000 C 286.672 174.000,285.954 174.540,285.263 175.200 C 284.572 175.860,283.852 176.400,283.663 176.400 C 283.474 176.400,282.754 176.940,282.063 177.600 C 281.372 178.260,280.624 178.800,280.400 178.800 C 280.176 178.800,279.428 179.340,278.737 180.000 C 278.046 180.660,277.238 181.200,276.941 181.200 C 276.643 181.200,276.400 181.380,276.400 181.600 C 276.400 181.820,276.080 182.000,275.688 182.000 C 275.297 182.000,274.717 182.360,274.400 182.800 C 274.083 183.240,273.543 183.600,273.200 183.600 C 272.857 183.600,272.317 183.960,272.000 184.400 C 271.683 184.840,271.103 185.200,270.712 185.200 C 270.320 185.200,270.000 185.380,270.000 185.600 C 270.000 185.820,269.640 186.000,269.200 186.000 C 268.760 186.000,268.400 186.180,268.400 186.400 C 268.400 186.620,268.040 186.800,267.600 186.800 C 267.160 186.800,266.800 186.980,266.800 187.200 C 266.800 187.420,266.440 187.600,266.000 187.600 C 265.560 187.600,265.200 187.780,265.200 188.000 C 265.200 188.220,264.840 188.400,264.400 188.400 C 263.960 188.400,263.600 188.580,263.600 188.800 C 263.600 189.020,263.251 189.200,262.824 189.200 C 262.397 189.200,261.936 189.380,261.800 189.600 C 261.664 189.820,261.113 190.000,260.576 190.000 C 260.039 190.000,259.600 190.180,259.600 190.400 C 259.600 190.620,258.981 190.800,258.224 190.800 C 257.467 190.800,256.736 190.980,256.600 191.200 C 256.464 191.420,255.643 191.600,254.776 191.600 C 253.909 191.600,253.200 191.780,253.200 192.000 C 253.200 192.233,251.867 192.400,250.000 192.400 C 248.133 192.400,246.800 192.233,246.800 192.000 C 246.800 191.780,246.337 191.600,245.771 191.600 C 244.634 191.600,244.080 191.142,243.232 189.500 C 242.920 188.895,242.515 188.400,242.332 188.400 C 242.150 188.400,242.000 186.780,242.000 184.800 C 242.000 182.667,242.163 181.200,242.400 181.200 C 242.620 181.200,242.800 180.300,242.800 179.200 C 242.800 178.100,242.980 177.200,243.200 177.200 C 243.420 177.200,243.600 176.480,243.600 175.600 C 243.600 174.720,243.780 174.000,244.000 174.000 C 244.220 174.000,244.400 173.381,244.400 172.624 C 244.400 171.867,244.598 171.125,244.840 170.975 C 245.124 170.800,245.189 169.977,245.024 168.652 C 244.847 167.234,245.010 165.549,245.553 163.200 C 245.984 161.330,246.548 158.495,246.805 156.900 C 247.128 154.893,247.446 154.000,247.836 154.000 C 248.246 154.000,248.400 153.454,248.400 152.000 C 248.400 150.267,248.507 150.000,249.200 150.000 C 249.640 150.000,250.000 149.820,250.000 149.600 C 250.000 149.360,251.600 149.200,254.000 149.200 C 256.400 149.200,258.000 149.040,258.000 148.800 C 258.000 148.578,259.067 148.400,260.400 148.400 C 261.733 148.400,262.800 148.222,262.800 148.000 C 262.800 147.780,263.700 147.600,264.800 147.600 C 265.900 147.600,266.800 147.420,266.800 147.200 C 266.800 146.980,267.419 146.800,268.176 146.800 C 268.933 146.800,269.664 146.620,269.800 146.400 C 269.936 146.180,270.562 146.000,271.190 146.000 C 271.819 146.000,272.393 145.828,272.467 145.618 C 272.540 145.407,273.263 145.191,274.074 145.137 C 274.885 145.084,275.459 144.896,275.351 144.720 C 275.242 144.544,275.548 144.400,276.031 144.400 C 276.513 144.400,277.290 143.995,277.756 143.500 C 278.221 143.005,280.582 141.810,283.001 140.844 C 287.998 138.850,294.156 135.843,297.884 133.578 C 299.709 132.470,300.751 132.082,301.614 132.192 C 302.286 132.277,302.711 132.180,302.582 131.972 C 302.456 131.767,302.633 131.600,302.976 131.600 C 303.319 131.600,303.600 131.420,303.600 131.200 C 303.600 130.980,303.920 130.800,304.312 130.800 C 304.703 130.800,305.283 130.440,305.600 130.000 C 305.917 129.560,306.425 129.200,306.728 129.200 C 307.031 129.200,307.783 128.660,308.400 128.000 C 309.017 127.340,309.691 126.800,309.898 126.800 C 310.537 126.800,314.800 122.456,314.800 121.805 C 314.800 120.808,322.111 113.240,323.100 113.213 C 323.375 113.206,323.600 113.020,323.600 112.800 C 323.600 112.580,323.876 112.400,324.213 112.400 C 324.549 112.400,324.942 112.085,325.085 111.700 C 325.228 111.315,325.672 110.709,326.072 110.353 C 326.473 109.997,326.800 109.412,326.800 109.053 C 326.800 108.694,326.980 108.400,327.200 108.400 C 327.420 108.400,327.600 108.040,327.600 107.600 C 327.600 107.160,327.780 106.800,328.000 106.800 C 328.220 106.800,328.400 106.440,328.400 106.000 C 328.400 105.560,328.580 105.200,328.800 105.200 C 329.020 105.200,329.200 104.840,329.200 104.400 C 329.200 103.960,329.380 103.600,329.600 103.600 C 329.820 103.600,330.000 102.959,330.000 102.176 C 330.000 101.393,330.145 100.843,330.323 100.953 C 330.501 101.062,330.691 100.398,330.745 99.476 C 330.799 98.554,331.013 97.629,331.221 97.420 C 331.728 96.911,331.709 92.400,331.200 92.400 C 330.980 92.400,330.800 91.680,330.800 90.800 C 330.800 89.920,330.620 89.200,330.400 89.200 C 330.180 89.200,330.000 88.840,330.000 88.400 C 330.000 87.960,329.820 87.600,329.600 87.600 C 329.380 87.600,329.200 87.326,329.200 86.991 C 329.200 86.213,325.007 82.000,324.232 82.000 C 323.911 82.000,323.536 81.820,323.400 81.600 C 323.264 81.380,322.533 81.200,321.776 81.200 C 321.019 81.200,320.400 81.020,320.400 80.800 C 320.400 80.554,318.400 80.400,315.200 80.400 C 312.000 80.400,310.000 80.554,310.000 80.800 C 310.000 81.020,309.100 81.200,308.000 81.200 C 306.900 81.200,306.000 81.380,306.000 81.600 C 306.000 81.820,305.280 82.000,304.400 82.000 C 303.520 82.000,302.800 82.180,302.800 82.400 C 302.800 82.620,302.080 82.800,301.200 82.800 C 300.320 82.800,299.600 82.980,299.600 83.200 C 299.600 83.420,299.161 83.600,298.624 83.600 C 298.087 83.600,297.536 83.780,297.400 84.000 C 297.264 84.220,296.803 84.400,296.376 84.400 C 295.949 84.400,295.600 84.580,295.600 84.800 C 295.600 85.020,295.060 85.200,294.400 85.200 C 293.740 85.200,293.200 85.380,293.200 85.600 C 293.200 85.820,292.840 86.000,292.400 86.000 C 291.960 86.000,291.600 86.180,291.600 86.400 C 291.600 86.620,291.161 86.800,290.624 86.800 C 290.087 86.800,289.536 86.980,289.400 87.200 C 289.264 87.420,288.803 87.600,288.376 87.600 C 287.949 87.600,287.600 87.780,287.600 88.000 C 287.600 88.220,287.240 88.400,286.800 88.400 C 286.360 88.400,286.000 88.580,286.000 88.800 C 286.000 89.020,285.640 89.200,285.200 89.200 C 284.760 89.200,284.400 89.380,284.400 89.600 C 284.400 89.820,284.040 90.000,283.600 90.000 C 283.160 90.000,282.800 90.180,282.800 90.400 C 282.800 90.620,282.440 90.800,282.000 90.800 C 281.560 90.800,281.200 90.980,281.200 91.200 C 281.200 91.420,280.855 91.600,280.433 91.600 C 280.012 91.600,279.607 91.735,279.533 91.900 C 279.366 92.276,277.236 93.575,276.300 93.871 C 275.915 93.993,275.600 94.252,275.600 94.447 C 275.600 94.641,275.240 94.800,274.800 94.800 C 274.360 94.800,274.000 94.950,274.000 95.132 C 274.000 95.315,273.505 95.719,272.900 96.030 C 272.295 96.340,271.509 96.911,271.153 97.297 C 270.797 97.684,270.252 98.000,269.941 98.000 C 269.631 98.000,269.117 98.360,268.800 98.800 C 268.483 99.240,267.943 99.600,267.600 99.600 C 267.257 99.600,266.717 99.960,266.400 100.400 C 266.083 100.840,265.620 101.200,265.371 101.200 C 265.122 101.200,264.354 101.740,263.663 102.400 C 262.972 103.060,262.212 103.600,261.972 103.600 C 261.733 103.600,260.846 104.320,260.000 105.200 C 259.154 106.080,258.251 106.800,257.992 106.800 C 257.733 106.800,257.017 107.340,256.400 108.000 C 255.783 108.660,255.073 109.200,254.820 109.200 C 254.224 109.200,250.800 112.823,250.800 113.454 C 250.800 113.720,249.765 114.805,248.500 115.864 C 245.389 118.469,239.925 123.307,237.000 126.047 C 233.807 129.039,231.749 130.800,231.447 130.800 C 230.867 130.800,231.346 130.027,233.702 127.165 C 241.823 117.296,245.581 113.200,246.510 113.200 C 247.169 113.200,250.800 109.871,250.800 109.267 C 250.800 109.040,252.240 107.401,254.000 105.624 C 255.760 103.848,257.200 102.201,257.200 101.966 C 257.200 101.730,257.920 100.846,258.800 100.000 C 259.680 99.154,260.400 98.269,260.400 98.032 C 260.400 97.795,261.120 96.859,262.000 95.952 C 262.880 95.045,263.600 94.127,263.600 93.912 C 263.600 93.697,264.140 93.017,264.800 92.400 C 265.460 91.783,266.000 91.031,266.000 90.728 C 266.000 90.425,266.360 89.917,266.800 89.600 C 267.240 89.283,267.600 88.743,267.600 88.400 C 267.600 88.057,267.960 87.517,268.400 87.200 C 268.840 86.883,269.200 86.303,269.200 85.912 C 269.200 85.520,269.380 85.200,269.600 85.200 C 269.820 85.200,270.000 84.840,270.000 84.400 C 270.000 83.960,270.180 83.600,270.400 83.600 C 270.620 83.600,270.800 83.240,270.800 82.800 C 270.800 82.360,270.980 82.000,271.200 82.000 C 271.420 82.000,271.600 81.640,271.600 81.200 C 271.600 80.760,271.780 80.400,272.000 80.400 C 272.220 80.400,272.400 79.860,272.400 79.200 C 272.400 78.540,272.580 78.000,272.800 78.000 C 273.022 78.000,273.200 76.933,273.200 75.600 C 273.200 74.267,273.022 73.200,272.800 73.200 C 272.580 73.200,272.400 72.905,272.400 72.544 C 272.400 70.481,267.785 70.089,266.000 72.000 C 265.383 72.660,264.631 73.200,264.328 73.200 C 264.025 73.200,263.517 73.560,263.200 74.000 C 262.883 74.440,262.303 74.800,261.912 74.800 C 261.520 74.800,261.200 74.980,261.200 75.200 C 261.200 75.420,260.922 75.600,260.583 75.600 C 260.244 75.600,259.580 75.960,259.108 76.400 C 258.636 76.840,257.833 77.200,257.325 77.200 C 256.816 77.200,256.400 77.380,256.400 77.600 C 256.400 77.820,256.040 78.000,255.600 78.000 C 255.160 78.000,254.800 78.180,254.800 78.400 C 254.800 78.620,254.260 78.800,253.600 78.800 C 252.940 78.800,252.400 78.980,252.400 79.200 C 252.400 79.420,252.040 79.600,251.600 79.600 C 251.160 79.600,250.800 79.780,250.800 80.000 C 250.800 80.220,250.260 80.400,249.600 80.400 C 248.940 80.400,248.400 80.580,248.400 80.800 C 248.400 81.020,247.860 81.200,247.200 81.200 C 246.540 81.200,246.000 81.380,246.000 81.600 C 246.000 81.820,245.280 82.000,244.400 82.000 C 243.520 82.000,242.800 82.180,242.800 82.400 C 242.800 82.620,242.080 82.800,241.200 82.800 C 240.320 82.800,239.600 82.980,239.600 83.200 C 239.600 83.420,238.880 83.600,238.000 83.600 C 237.120 83.600,236.400 83.780,236.400 84.000 C 236.400 84.220,235.680 84.400,234.800 84.400 C 233.920 84.400,233.200 84.580,233.200 84.800 C 233.200 85.020,232.660 85.200,232.000 85.200 C 231.340 85.200,230.800 85.020,230.800 84.800 C 230.800 84.580,231.120 84.400,231.512 84.400 C 231.903 84.400,232.483 84.040,232.800 83.600 C 233.117 83.160,233.697 82.800,234.088 82.800 C 234.480 82.800,234.800 82.620,234.800 82.400 C 234.800 82.180,235.160 82.000,235.600 82.000 C 236.040 82.000,236.400 81.820,236.400 81.600 C 236.400 81.380,236.760 81.200,237.200 81.200 C 237.640 81.200,238.000 81.020,238.000 80.800 C 238.000 80.580,238.360 80.400,238.800 80.400 C 239.240 80.400,239.600 80.220,239.600 80.000 C 239.600 79.780,239.960 79.600,240.400 79.600 C 240.840 79.600,241.200 79.420,241.200 79.200 C 241.200 78.980,241.740 78.800,242.400 78.800 C 243.060 78.800,243.600 78.620,243.600 78.400 C 243.600 78.180,244.320 78.000,245.200 78.000 C 246.080 78.000,246.800 77.820,246.800 77.600 C 246.800 77.380,247.160 77.200,247.600 77.200 C 248.222 77.200,248.400 76.933,248.400 76.000 C 248.400 75.340,248.220 74.800,248.000 74.800 C 247.780 74.800,247.600 74.517,247.600 74.171 C 247.600 73.363,246.637 72.400,245.829 72.400 C 245.483 72.400,245.200 72.220,245.200 72.000 C 245.200 71.780,244.300 71.600,243.200 71.600 C 242.100 71.600,241.200 71.780,241.200 72.000 C 241.200 72.220,240.480 72.400,239.600 72.400 C 238.720 72.400,238.000 72.580,238.000 72.800 C 238.000 73.020,237.561 73.200,237.024 73.200 C 236.487 73.200,235.936 73.380,235.800 73.600 C 235.664 73.820,235.203 74.000,234.776 74.000 C 234.349 74.000,234.000 74.180,234.000 74.400 C 234.000 74.620,233.640 74.800,233.200 74.800 C 232.760 74.800,232.400 74.980,232.400 75.200 C 232.400 75.420,232.040 75.600,231.600 75.600 C 231.160 75.600,230.800 75.780,230.800 76.000 C 230.800 76.220,230.480 76.400,230.088 76.400 C 229.697 76.400,229.117 76.760,228.800 77.200 C 228.483 77.640,227.943 78.000,227.600 78.000 C 227.257 78.000,226.717 78.360,226.400 78.800 C 226.083 79.240,225.591 79.600,225.308 79.600 C 225.025 79.600,224.228 80.140,223.537 80.800 C 222.846 81.460,222.110 82.000,221.901 82.000 C 221.692 82.000,221.017 82.540,220.400 83.200 C 219.783 83.860,219.109 84.400,218.901 84.400 C 218.692 84.400,217.387 85.480,216.000 86.800 C 214.613 88.120,213.275 89.200,213.027 89.200 C 212.779 89.200,212.317 89.560,212.000 90.000 C 211.661 90.470,210.965 90.800,210.312 90.800 C 209.700 90.800,209.200 90.980,209.200 91.200 C 209.200 91.420,208.660 91.600,208.000 91.600 C 207.340 91.600,206.800 91.780,206.800 92.000 C 206.800 92.220,206.440 92.400,206.000 92.400 C 205.560 92.400,205.200 92.580,205.200 92.800 C 205.200 93.020,204.840 93.200,204.400 93.200 C 203.960 93.200,203.600 93.380,203.600 93.600 C 203.600 93.820,203.348 94.000,203.041 94.000 C 202.317 94.000,196.400 99.777,196.400 100.484 C 196.400 100.781,196.040 101.283,195.600 101.600 C 195.130 101.939,194.800 102.635,194.800 103.288 C 194.800 103.900,194.620 104.400,194.400 104.400 C 194.180 104.400,194.000 105.120,194.000 106.000 C 194.000 106.880,193.820 107.600,193.600 107.600 C 193.380 107.600,193.200 108.064,193.200 108.631 C 193.200 109.309,192.660 110.182,191.623 111.178 C 190.547 112.212,190.110 112.933,190.245 113.451 C 190.566 114.678,185.455 120.400,184.038 120.400 C 183.246 120.400,182.775 120.705,182.368 121.481 C 182.055 122.076,180.765 123.641,179.500 124.959 C 178.235 126.278,177.200 127.500,177.200 127.676 C 177.200 127.852,176.300 128.915,175.200 130.039 C 174.100 131.162,173.200 132.242,173.200 132.439 C 173.200 132.635,172.300 133.715,171.200 134.839 C 170.100 135.962,169.200 137.057,169.200 137.272 C 169.200 137.487,168.480 138.354,167.600 139.200 C 166.720 140.046,166.000 140.957,166.000 141.225 C 166.000 141.494,165.460 142.229,164.800 142.860 C 164.140 143.491,163.600 144.177,163.600 144.384 C 163.600 144.591,162.520 145.844,161.200 147.168 C 159.880 148.492,158.800 149.761,158.800 149.987 C 158.800 150.213,158.096 151.146,157.236 152.059 C 156.375 152.973,155.759 153.949,155.866 154.229 C 156.228 155.171,145.925 167.997,144.540 168.329 C 144.243 168.400,144.000 168.625,144.000 168.829 C 144.000 169.033,143.810 169.200,143.577 169.200 C 143.344 169.200,139.390 172.980,134.791 177.600 C 130.191 182.220,126.263 186.000,126.062 186.000 C 125.861 186.000,124.955 186.720,124.048 187.600 C 123.141 188.480,122.129 189.200,121.800 189.200 C 121.470 189.200,121.200 189.380,121.200 189.600 C 121.200 189.820,120.840 190.000,120.400 190.000 C 119.960 190.000,119.600 190.180,119.600 190.400 C 119.600 190.620,119.240 190.800,118.800 190.800 C 118.360 190.800,118.000 190.980,118.000 191.200 C 118.000 191.422,116.933 191.600,115.600 191.600 C 113.467 191.600,113.200 191.511,113.200 190.800 C 113.200 190.360,113.020 190.000,112.800 190.000 C 112.580 190.000,112.400 189.460,112.400 188.800 C 112.400 188.140,112.580 187.600,112.800 187.600 C 113.020 187.600,113.200 186.880,113.200 186.000 C 113.200 185.120,113.380 184.400,113.600 184.400 C 113.820 184.400,114.000 183.860,114.000 183.200 C 114.000 182.540,114.180 182.000,114.400 182.000 C 114.620 182.000,114.800 181.460,114.800 180.800 C 114.800 180.140,114.980 179.600,115.200 179.600 C 115.420 179.600,115.600 179.060,115.600 178.400 C 115.600 177.740,115.780 177.200,116.000 177.200 C 116.220 177.200,116.400 176.851,116.400 176.424 C 116.400 175.997,116.580 175.536,116.800 175.400 C 117.020 175.264,117.200 174.713,117.200 174.176 C 117.200 173.639,117.380 173.200,117.600 173.200 C 117.820 173.200,118.000 172.840,118.000 172.400 C 118.000 171.960,118.180 171.600,118.400 171.600 C 118.620 171.600,118.800 171.075,118.800 170.433 C 118.800 169.792,119.025 169.191,119.300 169.098 C 119.695 168.966,119.689 168.796,119.275 168.294 C 118.742 167.648,122.721 159.322,128.783 148.400 C 131.383 143.716,131.535 143.525,132.456 143.818 C 132.965 143.979,133.200 143.856,133.200 143.427 C 133.200 143.082,133.380 142.800,133.600 142.800 C 133.820 142.800,134.000 142.440,134.000 142.000 C 134.000 141.560,134.180 141.200,134.400 141.200 C 134.620 141.200,134.800 140.922,134.800 140.583 C 134.800 140.244,135.160 139.580,135.600 139.108 C 136.040 138.636,136.400 138.013,136.400 137.725 C 136.400 137.436,136.580 137.200,136.800 137.200 C 137.020 137.200,137.200 136.840,137.200 136.400 C 137.200 135.960,137.380 135.600,137.600 135.600 C 137.820 135.600,138.000 135.364,138.000 135.075 C 138.000 134.787,138.360 134.164,138.800 133.692 C 139.240 133.220,139.600 132.596,139.600 132.305 C 139.600 132.014,139.960 131.517,140.400 131.200 C 140.840 130.883,141.200 130.303,141.200 129.912 C 141.200 129.520,141.380 129.200,141.600 129.200 C 141.820 129.200,142.000 128.880,142.000 128.488 C 142.000 128.097,142.360 127.517,142.800 127.200 C 143.240 126.883,143.600 126.343,143.600 126.000 C 143.600 125.657,143.960 125.117,144.400 124.800 C 144.840 124.483,145.200 123.903,145.200 123.512 C 145.200 123.120,145.380 122.800,145.600 122.800 C 145.820 122.800,146.000 122.564,146.000 122.275 C 146.000 121.987,146.360 121.364,146.800 120.892 C 147.240 120.420,147.600 119.796,147.600 119.505 C 147.600 119.214,147.960 118.717,148.400 118.400 C 148.840 118.083,149.200 117.543,149.200 117.200 C 149.200 116.857,149.560 116.317,150.000 116.000 C 150.440 115.683,150.800 115.143,150.800 114.800 C 150.800 114.457,151.160 113.917,151.600 113.600 C 152.040 113.283,152.400 112.743,152.400 112.400 C 152.400 112.057,152.760 111.517,153.200 111.200 C 153.640 110.883,154.000 110.343,154.000 110.000 C 154.000 109.657,154.360 109.117,154.800 108.800 C 155.240 108.483,155.600 108.020,155.600 107.771 C 155.600 107.522,156.140 106.754,156.800 106.063 C 157.460 105.372,158.000 104.575,158.000 104.292 C 158.000 104.009,158.360 103.517,158.800 103.200 C 159.240 102.883,159.600 102.375,159.600 102.072 C 159.600 101.769,160.140 101.017,160.800 100.400 C 161.460 99.783,162.000 99.063,162.000 98.800 C 162.000 98.537,162.540 97.817,163.200 97.200 C 163.860 96.583,164.400 95.863,164.400 95.600 C 164.400 95.337,164.940 94.617,165.600 94.000 C 166.260 93.383,166.800 92.663,166.800 92.400 C 166.800 92.137,167.340 91.417,168.000 90.800 C 168.660 90.183,169.200 89.519,169.200 89.324 C 169.200 89.128,169.920 88.172,170.800 87.200 C 171.680 86.228,172.400 85.272,172.400 85.076 C 172.400 84.881,172.940 84.217,173.600 83.600 C 174.260 82.983,174.800 82.316,174.800 82.118 C 174.800 81.919,175.880 80.635,177.200 79.265 C 178.520 77.895,179.600 76.550,179.600 76.275 C 179.600 76.001,179.960 75.517,180.400 75.200 C 182.095 73.979,180.642 70.003,178.500 70.000 C 178.225 70.000,178.000 69.820,178.000 69.600 C 178.000 69.380,177.640 69.200,177.200 69.200 C 176.760 69.200,176.400 69.020,176.400 68.800 C 176.400 68.043,173.413 68.349,172.824 69.167 M200.676 101.381 C 199.764 102.293,199.354 102.135,200.202 101.198 C 200.602 100.756,201.011 100.478,201.112 100.579 C 201.213 100.679,201.017 101.040,200.676 101.381 M238.841 139.028 C 241.154 140.209,243.642 144.270,243.030 145.865 C 242.267 147.853,233.589 145.828,232.586 143.428 C 230.967 139.552,234.710 136.919,238.841 139.028 " stroke="none" fill="#8958f0" fill-rule="evenodd"></path><path id="path1" d="M46.000 112.820 C 46.000 113.029,45.115 113.200,44.033 113.200 C 42.952 113.200,42.007 113.372,41.933 113.582 C 41.860 113.793,41.137 114.009,40.326 114.063 C 39.515 114.116,38.941 114.304,39.049 114.480 C 39.158 114.656,38.607 114.800,37.824 114.800 C 37.041 114.800,36.400 114.980,36.400 115.200 C 36.400 115.420,35.860 115.600,35.200 115.600 C 34.540 115.600,34.000 115.780,34.000 116.000 C 34.000 116.220,33.640 116.400,33.200 116.400 C 32.760 116.400,32.400 116.580,32.400 116.800 C 32.400 117.020,32.080 117.200,31.688 117.200 C 31.297 117.200,30.717 117.560,30.400 118.000 C 30.083 118.440,29.590 118.800,29.305 118.800 C 28.577 118.800,22.800 124.656,22.800 125.394 C 22.800 125.727,22.620 126.000,22.400 126.000 C 22.180 126.000,22.000 126.234,22.000 126.520 C 22.000 127.256,21.059 129.193,20.700 129.197 C 20.535 129.199,20.400 129.740,20.400 130.400 C 20.400 131.060,20.220 131.600,20.000 131.600 C 19.780 131.600,19.600 132.320,19.600 133.200 C 19.600 134.080,19.420 134.800,19.200 134.800 C 18.950 134.800,18.800 137.200,18.800 141.200 C 18.800 145.200,18.950 147.600,19.200 147.600 C 19.420 147.600,19.600 148.320,19.600 149.200 C 19.600 150.080,19.780 150.800,20.000 150.800 C 20.220 150.800,20.400 151.340,20.400 152.000 C 20.400 152.660,20.580 153.200,20.800 153.200 C 21.020 153.200,21.200 153.560,21.200 154.000 C 21.200 154.440,21.380 154.800,21.600 154.800 C 21.820 154.800,22.000 155.083,22.000 155.429 C 22.000 156.203,22.952 157.200,23.691 157.200 C 24.524 157.200,25.200 158.051,25.200 159.098 C 25.200 160.271,26.880 162.000,28.019 162.000 C 28.533 162.000,28.957 162.314,29.080 162.785 C 29.193 163.217,29.806 163.801,30.443 164.083 C 31.079 164.365,31.600 164.731,31.600 164.898 C 31.600 165.064,31.960 165.200,32.400 165.200 C 32.840 165.200,33.200 165.380,33.200 165.600 C 33.200 165.820,33.560 166.000,34.000 166.000 C 34.440 166.000,34.800 166.180,34.800 166.400 C 34.800 166.620,34.991 166.800,35.224 166.800 C 35.457 166.800,35.528 166.607,35.382 166.370 C 35.137 165.975,36.745 166.723,37.200 167.217 C 37.310 167.336,37.922 167.471,38.560 167.517 C 39.197 167.563,39.917 167.745,40.160 167.921 C 40.402 168.097,41.230 168.295,42.000 168.361 C 42.770 168.427,43.490 168.610,43.600 168.768 C 43.710 168.926,45.146 169.075,46.790 169.098 C 48.529 169.123,49.840 169.320,49.923 169.570 C 50.116 170.149,64.278 170.167,64.470 169.589 C 64.546 169.363,65.811 169.151,67.283 169.118 C 68.755 169.084,69.867 168.909,69.756 168.729 C 69.644 168.548,70.373 168.400,71.376 168.400 C 72.379 168.400,73.200 168.220,73.200 168.000 C 73.200 167.780,73.819 167.600,74.576 167.600 C 75.333 167.600,76.064 167.420,76.200 167.200 C 76.336 166.980,76.797 166.800,77.224 166.800 C 77.651 166.800,78.000 166.620,78.000 166.400 C 78.000 166.180,78.360 166.000,78.800 166.000 C 79.240 166.000,79.600 165.820,79.600 165.600 C 79.600 165.380,79.960 165.200,80.400 165.200 C 80.840 165.200,81.200 165.020,81.200 164.800 C 81.200 164.580,81.560 164.400,82.000 164.400 C 82.622 164.400,82.800 164.667,82.800 165.600 C 82.800 166.260,82.980 166.800,83.200 166.800 C 83.420 166.800,83.600 167.141,83.600 167.557 C 83.600 168.673,84.537 168.903,89.293 168.954 C 95.379 169.019,94.829 170.503,94.705 154.352 L 94.600 140.600 78.700 140.495 L 62.800 140.391 62.800 145.995 C 62.800 149.673,62.946 151.600,63.224 151.600 C 63.457 151.600,63.518 151.392,63.361 151.137 C 63.155 150.804,63.345 150.767,64.037 151.004 C 64.567 151.186,65.934 151.329,67.075 151.321 C 68.829 151.309,69.065 151.392,68.604 151.854 C 68.303 152.154,67.774 152.400,67.429 152.400 C 67.083 152.400,66.800 152.580,66.800 152.800 C 66.800 153.020,65.900 153.200,64.800 153.200 C 63.700 153.200,62.800 153.380,62.800 153.600 C 62.800 153.842,61.067 154.000,58.400 154.000 C 55.733 154.000,54.000 153.842,54.000 153.600 C 54.000 153.380,53.224 153.200,52.275 153.200 C 51.080 153.200,50.276 152.944,49.655 152.365 C 49.162 151.906,48.498 151.630,48.179 151.753 C 47.861 151.875,47.600 151.816,47.600 151.621 C 47.600 151.427,47.060 150.758,46.400 150.135 C 45.740 149.512,45.200 148.687,45.200 148.301 C 45.200 147.916,45.020 147.600,44.800 147.600 C 44.580 147.600,44.400 147.240,44.400 146.800 C 44.400 146.360,44.220 146.000,44.000 146.000 C 43.780 146.000,43.600 145.503,43.600 144.896 C 43.600 144.212,43.284 143.595,42.770 143.274 C 42.207 142.922,42.060 142.601,42.313 142.278 C 42.519 142.015,42.713 140.990,42.745 140.000 C 42.776 139.010,42.981 138.140,43.201 138.067 C 43.420 137.993,43.600 137.408,43.600 136.767 C 43.600 136.125,43.780 135.600,44.000 135.600 C 44.220 135.600,44.400 135.296,44.400 134.924 C 44.400 133.635,49.564 129.200,51.065 129.200 C 51.799 129.200,52.400 129.020,52.400 128.800 C 52.400 128.347,61.696 128.230,62.144 128.677 C 62.296 128.829,62.821 129.015,63.310 129.089 C 63.800 129.163,64.260 129.398,64.333 129.612 C 64.407 129.825,64.812 130.000,65.233 130.000 C 65.655 130.000,66.000 130.201,66.000 130.447 C 66.000 130.696,66.353 130.801,66.800 130.684 C 67.360 130.538,67.604 130.674,67.613 131.137 C 67.652 133.190,67.719 133.200,81.744 133.200 L 94.800 133.200 94.800 132.000 C 94.800 131.340,94.620 130.800,94.400 130.800 C 94.180 130.800,94.000 130.457,94.000 130.038 C 94.000 129.131,92.392 126.000,91.926 126.000 C 91.747 126.000,91.600 125.727,91.600 125.394 C 91.600 124.656,85.823 118.800,85.095 118.800 C 84.810 118.800,84.317 118.440,84.000 118.000 C 83.683 117.560,83.103 117.200,82.712 117.200 C 82.320 117.200,82.000 117.020,82.000 116.800 C 82.000 116.580,81.640 116.400,81.200 116.400 C 80.760 116.400,80.400 116.243,80.400 116.050 C 80.400 115.858,79.913 115.700,79.317 115.700 C 78.721 115.700,78.166 115.498,78.083 115.250 C 78.001 115.003,77.408 114.800,76.767 114.800 C 76.125 114.800,75.600 114.620,75.600 114.400 C 75.600 114.180,74.891 114.000,74.024 114.000 C 73.157 114.000,72.336 113.820,72.200 113.600 C 72.064 113.380,71.153 113.200,70.176 113.200 C 69.199 113.200,68.400 113.017,68.400 112.793 C 68.400 112.526,64.550 112.395,57.200 112.413 C 50.414 112.429,46.000 112.590,46.000 112.820 M113.543 113.572 C 113.458 113.827,112.599 114.114,111.635 114.210 C 109.336 114.439,109.442 114.222,109.262 119.071 C 109.166 121.666,108.972 123.084,108.759 122.747 C 108.561 122.435,108.410 132.108,108.406 145.300 L 108.400 168.400 110.300 168.394 C 112.842 168.386,112.803 168.429,114.809 163.400 C 116.791 158.430,124.865 142.051,128.020 136.600 C 132.448 128.950,132.399 129.096,132.406 123.551 C 132.410 120.206,132.538 118.795,132.800 119.200 C 133.131 119.713,133.189 119.698,133.194 119.100 C 133.197 118.715,133.020 118.400,132.800 118.400 C 132.580 118.400,132.400 118.029,132.400 117.576 C 132.400 117.123,132.558 116.850,132.750 116.969 C 132.943 117.089,132.870 116.514,132.588 115.693 L 132.075 114.200 123.142 114.068 C 117.563 113.986,114.112 113.782,113.953 113.523 C 113.783 113.250,113.645 113.266,113.543 113.572 M118.105 113.487 C 118.714 113.579,119.614 113.577,120.105 113.482 C 120.597 113.387,120.100 113.311,119.000 113.314 C 117.900 113.317,117.497 113.395,118.105 113.487 M204.800 113.566 C 206.423 113.868,202.425 114.392,198.455 114.397 L 196.309 114.400 196.574 115.700 C 197.289 119.214,196.744 120.140,195.370 117.745 L 194.540 116.299 189.842 121.397 C 184.667 127.014,184.400 127.467,184.400 130.650 C 184.400 131.927,184.242 132.749,184.022 132.614 C 183.787 132.469,183.632 139.199,183.612 150.390 L 183.580 168.400 189.574 168.400 C 193.872 168.400,195.691 168.259,196.001 167.900 C 197.291 166.408,206.301 153.769,206.871 152.652 C 207.333 151.747,207.575 150.127,207.645 147.468 C 207.702 145.341,207.877 143.600,208.034 143.600 C 208.190 143.600,208.327 136.760,208.337 128.400 C 208.350 118.479,208.217 113.200,207.954 113.200 C 207.734 113.200,207.680 113.425,207.835 113.700 C 208.061 114.100,208.010 114.100,207.579 113.700 C 207.282 113.425,206.221 113.224,205.220 113.253 C 203.443 113.304,203.433 113.311,204.800 113.566 M224.500 113.546 C 224.539 113.686,224.347 114.201,224.075 114.692 C 223.299 116.091,223.590 128.958,224.400 129.081 C 225.649 129.271,236.506 114.642,235.350 114.328 C 234.799 114.178,234.106 113.854,233.810 113.608 C 233.242 113.137,224.372 113.078,224.500 113.546 M262.000 113.532 C 262.000 113.714,261.055 113.903,259.900 113.951 C 253.925 114.202,254.650 113.858,248.600 119.317 C 240.725 126.422,226.396 141.108,225.096 143.405 C 224.929 143.701,224.723 145.890,224.639 148.271 C 224.276 158.492,224.315 158.024,224.000 156.000 C 223.828 154.892,223.697 156.930,223.660 161.300 L 223.600 168.400 231.176 168.400 C 236.091 168.400,238.845 168.251,239.015 167.975 C 239.160 167.742,239.638 165.897,240.079 163.875 C 240.520 161.854,241.042 159.480,241.240 158.600 C 241.705 156.535,242.784 150.349,242.793 149.700 C 242.798 149.361,242.109 149.200,240.660 149.200 C 232.870 149.200,227.625 142.884,231.882 138.627 C 235.781 134.728,241.587 136.181,245.270 141.978 C 245.892 142.956,246.414 143.496,246.430 143.178 C 246.447 142.860,246.546 139.995,246.650 136.812 C 246.753 133.628,246.994 130.928,247.183 130.810 C 247.373 130.693,247.589 130.067,247.664 129.419 L 247.800 128.240 257.197 128.312 C 263.171 128.357,266.644 128.532,266.731 128.792 C 266.805 129.016,267.381 129.200,268.010 129.200 C 268.638 129.200,269.264 129.380,269.400 129.600 C 269.536 129.820,270.087 130.000,270.624 130.000 C 271.161 130.000,271.600 130.180,271.600 130.400 C 271.600 130.620,271.894 130.800,272.253 130.800 C 273.019 130.800,276.400 134.062,276.400 134.801 C 276.400 135.392,278.394 137.199,279.047 137.200 C 279.688 137.200,286.811 133.638,290.800 131.322 C 297.424 127.475,299.673 125.691,298.423 125.274 C 298.190 125.197,298.000 124.923,298.000 124.666 C 298.000 123.933,293.760 119.600,293.043 119.600 C 292.689 119.600,292.400 119.420,292.400 119.200 C 292.400 118.980,292.040 118.800,291.600 118.800 C 291.160 118.800,290.800 118.620,290.800 118.400 C 290.800 118.180,290.440 118.000,290.000 118.000 C 289.560 118.000,289.200 117.820,289.200 117.600 C 289.200 117.380,288.840 117.200,288.400 117.200 C 287.960 117.200,287.600 117.020,287.600 116.800 C 287.600 116.580,287.060 116.400,286.400 116.400 C 285.740 116.400,285.200 116.220,285.200 116.000 C 285.200 115.780,284.480 115.600,283.600 115.600 C 282.720 115.600,282.000 115.420,282.000 115.200 C 282.000 114.980,281.100 114.800,280.000 114.800 C 278.900 114.800,278.000 114.642,278.000 114.450 C 278.000 114.257,276.605 114.073,274.900 114.040 C 273.195 114.008,271.740 113.805,271.667 113.590 C 271.504 113.115,262.000 113.057,262.000 113.532 M329.133 113.585 C 329.060 113.796,327.478 114.067,325.617 114.187 C 323.757 114.307,322.128 114.539,321.997 114.703 C 321.867 114.866,320.448 116.380,318.844 118.068 L 315.928 121.135 315.783 124.228 C 315.704 125.929,315.450 127.510,315.219 127.741 C 314.938 128.022,314.800 134.777,314.800 148.280 L 314.800 168.400 347.940 168.400 L 381.080 168.400 381.151 163.530 C 381.202 159.969,381.084 158.563,380.711 158.300 C 380.305 158.013,380.303 157.897,380.700 157.736 C 380.975 157.625,381.200 156.998,381.200 156.343 C 381.200 155.688,381.040 155.251,380.845 155.372 C 380.650 155.492,380.397 155.233,380.283 154.796 C 380.079 154.014,379.700 154.000,359.437 154.000 L 338.800 154.000 338.748 151.500 C 338.682 148.264,338.572 147.136,338.252 146.400 C 337.937 145.677,345.207 145.776,345.660 146.501 C 345.837 146.785,348.084 146.803,352.760 146.558 C 356.523 146.361,359.601 146.335,359.601 146.500 C 359.600 146.665,360.680 146.800,362.000 146.800 C 363.333 146.800,364.400 146.622,364.400 146.400 C 364.400 146.163,365.875 146.000,368.024 146.000 C 370.017 146.000,371.555 146.150,371.441 146.333 C 371.328 146.517,371.459 146.667,371.733 146.667 C 372.040 146.667,372.237 146.080,372.248 145.133 C 372.258 144.290,372.116 143.600,371.933 143.600 C 371.375 143.600,371.535 138.493,372.100 138.265 C 372.500 138.104,372.500 138.057,372.100 138.032 C 371.511 137.994,371.414 136.800,372.000 136.800 C 372.719 136.800,372.420 136.060,371.594 135.798 C 371.151 135.657,370.879 135.396,370.990 135.216 C 371.101 135.037,370.968 134.898,370.696 134.908 C 370.423 134.918,363.135 134.898,354.500 134.863 L 338.800 134.800 338.800 131.600 L 338.800 128.400 357.300 128.340 C 367.475 128.307,376.295 128.318,376.900 128.365 L 378.000 128.451 378.000 120.826 L 378.000 113.200 353.633 113.200 C 338.396 113.200,329.217 113.344,329.133 113.585 M337.312 113.892 C 336.384 113.976,334.764 113.977,333.712 113.895 C 332.660 113.812,333.420 113.743,335.400 113.742 C 337.380 113.741,338.240 113.808,337.312 113.892 M184.667 114.267 C 184.263 114.670,184.347 118.720,184.765 118.978 C 184.966 119.103,186.040 118.168,187.153 116.902 C 189.074 114.716,189.131 114.587,188.288 114.340 C 187.073 113.984,184.991 113.942,184.667 114.267 M246.892 114.316 C 245.606 114.450,242.548 117.524,238.255 123.000 L 237.000 124.600 238.600 123.335 C 239.480 122.640,241.466 120.930,243.012 119.535 C 244.559 118.141,246.523 116.444,247.377 115.764 C 249.051 114.431,248.941 114.104,246.892 114.316 M297.827 134.462 C 293.276 137.231,287.341 140.063,280.600 142.682 C 278.959 143.320,278.560 143.669,278.378 144.630 C 278.256 145.273,277.941 145.755,277.678 145.700 C 277.408 145.644,277.200 146.036,277.200 146.600 C 277.200 147.333,276.987 147.600,276.400 147.600 C 275.960 147.600,275.600 147.791,275.600 148.024 C 275.600 148.257,275.825 148.318,276.100 148.159 C 276.390 147.992,276.460 148.024,276.267 148.236 C 276.083 148.436,275.723 148.600,275.467 148.600 C 275.210 148.600,275.000 148.793,275.000 149.029 C 275.000 149.844,272.569 151.600,271.439 151.600 C 271.124 151.600,270.805 151.784,270.730 152.009 C 270.656 152.233,269.921 152.442,269.097 152.473 C 268.274 152.504,267.600 152.680,267.600 152.865 C 267.600 153.049,266.715 153.200,265.633 153.200 C 264.552 153.200,263.607 153.366,263.533 153.569 C 263.460 153.772,260.295 153.990,256.500 154.053 C 252.705 154.117,249.600 154.307,249.600 154.477 C 249.600 154.646,249.150 154.898,248.600 155.036 C 247.799 155.237,247.600 155.537,247.600 156.544 C 247.600 157.759,246.427 163.517,245.409 167.300 L 245.113 168.400 259.923 168.400 C 268.851 168.400,274.786 168.250,274.867 168.022 C 274.940 167.815,276.027 167.604,277.282 167.555 C 278.537 167.505,279.471 167.315,279.358 167.132 C 279.245 166.950,280.138 166.800,281.343 166.800 C 282.548 166.800,283.593 166.622,283.667 166.403 C 283.740 166.185,284.282 165.967,284.871 165.919 C 285.460 165.870,285.855 165.688,285.748 165.515 C 285.640 165.342,286.193 165.200,286.976 165.200 C 287.759 165.200,288.400 165.020,288.400 164.800 C 288.400 164.580,288.648 164.400,288.951 164.400 C 289.254 164.400,289.724 164.132,289.996 163.804 C 290.268 163.477,290.662 163.315,290.872 163.445 C 291.082 163.574,291.353 163.302,291.474 162.840 C 291.726 161.874,292.021 161.797,292.779 162.500 C 293.104 162.802,293.216 162.819,293.061 162.542 C 292.920 162.290,293.074 161.981,293.402 161.854 C 293.731 161.728,294.000 161.349,294.000 161.013 C 294.000 160.277,294.663 160.195,294.904 160.900 C 295.007 161.199,295.821 160.614,296.928 159.446 C 297.947 158.372,298.684 157.336,298.565 157.144 C 298.446 156.952,298.631 156.686,298.975 156.554 C 299.319 156.422,299.600 155.974,299.600 155.557 C 299.600 155.141,299.780 154.800,300.000 154.800 C 300.220 154.800,300.400 154.440,300.400 154.000 C 300.400 153.560,300.580 153.200,300.800 153.200 C 301.020 153.200,301.200 152.660,301.200 152.000 C 301.200 151.340,301.380 150.800,301.600 150.800 C 301.837 150.800,302.000 149.333,302.000 147.200 C 302.000 145.067,302.163 143.600,302.400 143.600 C 302.625 143.600,302.800 142.475,302.800 141.024 C 302.800 139.607,302.620 138.336,302.400 138.200 C 302.180 138.064,302.000 137.353,302.000 136.619 C 302.000 135.803,301.767 135.196,301.400 135.055 C 301.070 134.929,300.800 134.459,300.800 134.013 C 300.800 132.933,300.188 133.025,297.827 134.462 M234.600 139.278 C 232.805 140.296,232.593 143.064,234.212 144.338 C 236.383 146.046,242.438 145.981,242.108 144.254 C 241.524 141.196,236.771 138.047,234.600 139.278 M130.128 147.700 C 126.536 154.087,119.600 167.521,119.600 168.091 C 119.600 168.820,143.462 168.443,144.317 167.700 C 145.110 167.011,150.951 160.202,153.564 156.920 C 155.890 153.999,155.895 154.000,143.855 154.000 C 131.586 154.000,132.659 154.466,132.623 149.121 C 132.592 144.378,132.141 144.122,130.128 147.700 M163.102 154.493 C 163.012 154.764,162.466 154.947,161.889 154.899 C 161.042 154.829,160.344 155.370,158.266 157.706 C 151.340 165.493,149.200 167.964,149.200 168.172 C 149.200 168.298,154.613 168.400,161.229 168.400 L 173.258 168.400 173.146 161.907 C 173.003 153.660,173.244 154.000,167.544 154.000 C 164.510 154.000,163.219 154.143,163.102 154.493 M206.027 166.362 C 204.919 167.918,204.985 168.400,206.304 168.400 C 206.993 168.400,207.605 168.084,207.933 167.558 C 208.222 167.095,208.266 166.836,208.030 166.982 C 207.766 167.144,207.600 166.851,207.600 166.224 C 207.600 164.879,207.048 164.928,206.027 166.362 " stroke="none" fill="#fbfbfb" fill-rule="evenodd"></path><path id="path2" d="M109.358 113.900 C 109.239 114.285,108.966 114.927,108.751 115.327 C 108.308 116.150,108.354 122.078,108.808 122.814 C 108.972 123.078,109.176 121.394,109.262 119.071 C 109.450 114.001,109.179 114.340,113.300 114.023 C 113.465 114.010,113.600 113.820,113.600 113.600 C 113.600 112.839,109.599 113.122,109.358 113.900 M114.000 113.700 C 114.000 113.865,117.375 114.026,121.500 114.057 C 132.998 114.145,132.125 114.054,132.426 115.200 C 132.570 115.750,132.601 116.695,132.494 117.300 C 132.387 117.909,132.482 118.400,132.709 118.400 C 133.243 118.400,133.217 114.358,132.679 113.679 C 132.222 113.101,114.001 113.122,114.000 113.700 M184.048 113.712 C 183.348 114.412,183.480 118.603,184.222 119.218 C 184.744 119.651,184.985 119.581,185.722 118.782 L 186.600 117.830 185.708 118.569 C 184.580 119.505,184.298 118.952,184.476 116.149 L 184.600 114.200 186.900 114.278 C 188.636 114.337,189.200 114.219,189.200 113.799 C 189.200 113.103,184.732 113.028,184.048 113.712 M197.200 113.800 C 196.618 114.501,198.535 114.599,203.400 114.117 C 206.094 113.850,206.140 113.829,204.600 113.543 C 201.699 113.005,197.746 113.142,197.200 113.800 M223.600 114.292 C 223.600 114.865,223.647 115.258,223.704 115.167 C 223.762 115.075,224.115 114.633,224.490 114.184 C 225.138 113.409,225.133 113.365,224.386 113.309 C 223.791 113.264,223.600 113.503,223.600 114.292 M234.176 113.813 C 234.604 114.136,235.301 114.400,235.725 114.400 C 236.404 114.400,236.431 114.485,235.949 115.100 C 235.451 115.734,235.466 115.749,236.100 115.251 C 237.467 114.179,236.986 113.199,235.100 113.213 C 233.518 113.225,233.454 113.266,234.176 113.813 M246.451 113.850 C 245.967 114.398,246.060 114.456,247.251 114.348 C 248.191 114.263,248.567 114.382,248.490 114.742 C 248.430 115.027,248.565 115.145,248.790 115.006 C 249.016 114.867,249.200 114.403,249.200 113.976 C 249.200 113.005,247.277 112.917,246.451 113.850 M255.100 113.752 C 254.487 114.221,254.611 114.272,256.100 114.163 C 257.035 114.095,258.745 114.000,259.900 113.951 C 263.128 113.816,262.389 113.302,258.900 113.256 C 256.868 113.230,255.559 113.400,255.100 113.752 M322.991 113.757 C 322.305 114.259,322.428 114.306,324.214 114.233 C 328.695 114.047,329.200 113.983,329.200 113.600 C 329.200 112.972,323.880 113.107,322.991 113.757 M333.712 113.895 C 334.764 113.977,336.384 113.976,337.312 113.892 C 338.240 113.808,337.380 113.741,335.400 113.742 C 333.420 113.743,332.660 113.812,333.712 113.895 M244.175 115.700 L 243.000 117.000 244.300 115.825 C 245.015 115.179,245.600 114.594,245.600 114.525 C 245.600 114.216,245.270 114.488,244.175 115.700 M245.000 117.833 L 242.600 120.065 245.100 117.973 C 247.323 116.112,247.843 115.598,247.500 115.601 C 247.445 115.601,246.320 116.606,245.000 117.833 M318.388 118.300 L 315.800 121.000 318.500 118.412 C 319.985 116.988,321.200 115.773,321.200 115.712 C 321.200 115.417,320.793 115.792,318.388 118.300 M192.792 117.891 L 191.000 119.800 192.829 118.086 L 194.659 116.372 195.422 117.789 C 196.271 119.365,196.962 119.441,197.074 117.969 C 197.118 117.386,197.067 117.279,196.945 117.700 C 196.746 118.385,196.009 118.694,195.991 118.100 C 195.986 117.935,195.668 117.391,195.283 116.891 L 194.584 115.983 192.792 117.891 M250.575 117.300 L 249.400 118.600 250.700 117.425 C 251.415 116.779,252.000 116.194,252.000 116.125 C 252.000 115.816,251.670 116.088,250.575 117.300 M132.406 123.124 C 132.402 126.039,132.542 127.559,132.800 127.400 C 133.313 127.083,133.313 119.994,132.800 119.200 C 132.537 118.793,132.410 120.055,132.406 123.124 M245.978 121.500 L 244.600 123.000 246.100 121.622 C 247.496 120.338,247.784 120.000,247.478 120.000 C 247.412 120.000,246.737 120.675,245.978 121.500 M230.575 121.868 C 229.959 122.676,229.659 123.211,229.909 123.056 C 230.421 122.740,232.153 120.400,231.875 120.400 C 231.776 120.400,231.191 121.061,230.575 121.868 M240.175 122.100 L 239.000 123.400 240.300 122.225 C 241.015 121.579,241.600 120.994,241.600 120.925 C 241.600 120.616,241.270 120.888,240.175 122.100 M188.000 123.000 C 187.028 123.990,186.323 124.800,186.433 124.800 C 186.543 124.800,187.428 123.990,188.400 123.000 C 189.372 122.010,190.077 121.200,189.967 121.200 C 189.857 121.200,188.972 122.010,188.000 123.000 M315.280 121.680 C 314.992 121.968,314.800 123.360,314.800 125.160 C 314.800 129.159,315.587 128.438,315.782 124.261 C 315.860 122.577,315.888 121.200,315.842 121.200 C 315.797 121.200,315.544 121.416,315.280 121.680 M236.787 124.417 C 235.121 126.520,235.388 126.707,237.351 124.810 C 238.250 123.941,238.727 123.202,238.486 123.053 C 238.257 122.912,237.493 123.525,236.787 124.417 M237.800 129.200 C 234.506 132.500,231.900 135.200,232.010 135.200 C 232.120 135.200,234.906 132.500,238.200 129.200 C 241.494 125.900,244.100 123.200,243.990 123.200 C 243.880 123.200,241.094 125.900,237.800 129.200 M225.448 128.453 C 225.084 128.973,224.607 129.212,224.226 129.065 C 223.833 128.915,223.600 129.044,223.600 129.413 C 223.600 130.132,224.052 130.164,224.843 129.500 C 225.624 128.845,226.560 127.600,226.272 127.600 C 226.147 127.600,225.777 127.984,225.448 128.453 M183.600 130.376 C 183.600 131.463,183.780 132.464,184.000 132.600 C 184.248 132.753,184.400 132.004,184.400 130.624 C 184.400 129.401,184.220 128.400,184.000 128.400 C 183.780 128.400,183.600 129.289,183.600 130.376 M246.736 133.700 C 246.525 143.327,246.477 143.926,245.963 143.200 C 245.586 142.667,245.557 142.667,245.701 143.200 C 245.790 143.530,246.267 143.859,246.761 143.932 L 247.659 144.063 247.550 137.432 C 247.441 130.837,246.858 128.163,246.736 133.700 M208.093 132.800 C 208.093 133.570,208.175 133.885,208.276 133.500 C 208.376 133.115,208.376 132.485,208.276 132.100 C 208.175 131.715,208.093 132.030,208.093 132.800 M300.254 133.104 C 300.503 133.267,300.773 133.745,300.854 134.167 C 301.097 135.444,302.000 135.407,302.000 134.121 C 302.000 133.157,301.825 132.961,300.900 132.891 C 300.295 132.845,300.004 132.941,300.254 133.104 M370.800 135.393 C 372.020 136.099,372.732 136.172,372.085 135.525 C 371.824 135.264,371.203 134.998,370.705 134.933 C 369.828 134.818,369.831 134.833,370.800 135.393 M229.978 137.500 L 228.600 139.000 230.100 137.622 C 231.496 136.338,231.784 136.000,231.478 136.000 C 231.412 136.000,230.737 136.675,229.978 137.500 M234.657 136.707 C 234.553 136.876,235.217 136.957,236.134 136.886 C 238.825 136.679,239.153 136.496,236.924 136.446 C 235.782 136.421,234.762 136.538,234.657 136.707 M277.200 136.757 C 277.200 137.175,278.180 137.601,279.133 137.598 C 279.545 137.596,279.361 137.366,278.654 136.998 C 277.317 136.300,277.200 136.281,277.200 136.757 M239.423 137.237 C 239.546 137.437,239.834 137.600,240.062 137.600 C 240.290 137.600,241.044 137.975,241.738 138.433 L 243.000 139.266 241.828 138.261 C 240.659 137.257,238.999 136.551,239.423 137.237 M371.600 137.400 C 371.600 137.730,371.780 138.000,372.000 138.000 C 372.220 138.000,372.400 137.730,372.400 137.400 C 372.400 137.070,372.220 136.800,372.000 136.800 C 371.780 136.800,371.600 137.070,371.600 137.400 M231.285 139.213 C 231.018 139.640,230.801 140.217,230.802 140.495 C 230.804 140.773,231.077 140.478,231.410 139.840 C 232.103 138.511,232.011 138.050,231.285 139.213 M371.600 141.000 C 371.600 142.467,371.774 143.600,372.000 143.600 C 372.226 143.600,372.400 142.467,372.400 141.000 C 372.400 139.533,372.226 138.400,372.000 138.400 C 371.774 138.400,371.600 139.533,371.600 141.000 M240.025 141.031 C 240.781 141.928,241.481 142.597,241.580 142.517 C 241.679 142.438,241.060 141.704,240.205 140.887 L 238.650 139.400 240.025 141.031 M232.958 140.566 C 232.838 140.878,232.805 141.643,232.884 142.266 C 233.002 143.191,233.064 143.087,233.225 141.700 C 233.427 139.951,233.338 139.575,232.958 140.566 M226.123 141.700 C 223.577 144.383,222.955 148.519,224.005 155.800 L 224.293 157.800 224.389 155.200 C 224.625 148.824,224.793 144.176,224.796 143.901 C 224.798 143.737,225.451 142.882,226.247 142.001 C 227.976 140.086,227.879 139.849,226.123 141.700 M277.813 143.985 C 277.121 144.750,277.235 146.273,277.951 145.830 C 278.239 145.652,278.837 143.200,278.593 143.200 C 278.555 143.200,278.204 143.553,277.813 143.985 M207.648 147.241 C 207.576 149.751,207.676 150.800,207.972 150.618 C 208.470 150.310,208.570 143.600,208.077 143.600 C 207.899 143.600,207.706 145.239,207.648 147.241 M230.803 144.287 C 230.799 144.919,233.481 147.601,234.113 147.597 C 234.381 147.596,234.085 147.255,233.457 146.841 C 232.828 146.426,231.974 145.572,231.559 144.943 C 231.145 144.315,230.804 144.019,230.803 144.287 M131.192 145.300 C 130.790 146.129,130.802 146.143,131.340 145.476 C 132.260 144.334,132.600 145.357,132.600 149.266 C 132.600 154.037,133.081 154.135,133.169 149.381 C 133.255 144.813,132.341 142.928,131.192 145.300 M236.100 145.476 C 236.485 145.576,237.115 145.576,237.500 145.476 C 237.885 145.375,237.570 145.293,236.800 145.293 C 236.030 145.293,235.715 145.375,236.100 145.476 M338.131 146.163 C 338.279 146.549,338.400 146.896,338.399 146.933 C 338.399 146.970,340.019 146.942,341.999 146.872 C 346.438 146.713,346.793 146.000,342.433 146.000 C 340.691 146.000,338.949 145.879,338.563 145.731 C 338.012 145.519,337.919 145.612,338.131 146.163 M276.612 146.517 C 276.441 146.912,276.413 147.347,276.551 147.484 C 276.957 147.890,277.284 147.320,277.097 146.531 C 276.932 145.833,276.910 145.832,276.612 146.517 M355.800 146.400 L 352.200 146.649 355.900 146.724 C 358.150 146.770,359.600 146.643,359.600 146.400 C 359.600 146.180,359.555 146.034,359.500 146.076 C 359.445 146.117,357.780 146.263,355.800 146.400 M364.400 146.400 C 364.400 146.901,371.891 146.899,372.201 146.398 C 372.303 146.233,370.589 146.067,368.393 146.030 C 365.716 145.983,364.400 146.106,364.400 146.400 M238.905 149.087 C 239.514 149.179,240.414 149.177,240.905 149.082 C 241.397 148.987,240.900 148.911,239.800 148.914 C 238.700 148.917,238.297 148.995,238.905 149.087 M63.400 151.200 C 63.536 151.420,64.042 151.597,64.524 151.594 C 65.236 151.589,65.288 151.515,64.800 151.200 C 64.012 150.691,63.085 150.691,63.400 151.200 M242.093 154.800 C 242.093 155.570,242.175 155.885,242.276 155.500 C 242.376 155.115,242.376 154.485,242.276 154.100 C 242.175 153.715,242.093 154.030,242.093 154.800 M154.657 154.605 C 154.785 154.938,154.644 155.523,154.345 155.905 C 153.852 156.534,153.867 156.548,154.500 156.051 C 155.242 155.469,155.466 154.000,154.813 154.000 C 154.599 154.000,154.530 154.272,154.657 154.605 M159.781 155.699 C 158.259 157.336,158.254 157.350,159.649 156.070 C 160.446 155.339,161.346 154.776,161.649 154.818 C 162.644 154.957,163.200 154.807,163.200 154.400 C 163.200 153.376,161.255 154.116,159.781 155.699 M172.243 154.567 C 172.376 154.915,172.661 155.200,172.876 155.200 C 173.402 155.200,173.073 154.291,172.475 154.092 C 172.182 153.994,172.093 154.177,172.243 154.567 M248.012 154.384 C 247.688 154.589,247.539 154.873,247.681 155.015 C 248.031 155.365,249.600 154.840,249.600 154.373 C 249.600 153.897,248.773 153.903,248.012 154.384 M380.291 154.826 C 380.432 155.366,380.643 155.517,380.899 155.261 C 381.313 154.847,380.987 154.000,380.414 154.000 C 380.227 154.000,380.172 154.372,380.291 154.826 M247.309 157.200 C 247.309 158.190,247.387 158.595,247.482 158.100 C 247.578 157.605,247.578 156.795,247.482 156.300 C 247.387 155.805,247.309 156.210,247.309 157.200 M23.600 157.600 C 23.600 157.820,23.759 158.000,23.953 158.000 C 24.148 158.000,24.437 158.405,24.596 158.900 C 24.847 159.682,24.910 159.706,25.075 159.081 C 25.270 158.347,24.584 157.200,23.951 157.200 C 23.758 157.200,23.600 157.380,23.600 157.600 M202.000 159.600 C 201.530 160.260,201.236 160.800,201.346 160.800 C 201.456 160.800,201.930 160.260,202.400 159.600 C 202.870 158.940,203.164 158.400,203.054 158.400 C 202.944 158.400,202.470 158.940,202.000 159.600 M153.775 162.500 L 152.600 163.800 153.900 162.625 C 154.615 161.979,155.200 161.394,155.200 161.325 C 155.200 161.016,154.870 161.288,153.775 162.500 M147.349 164.284 C 146.277 165.540,145.609 166.439,145.864 166.283 C 146.423 165.939,149.754 162.000,149.486 162.000 C 149.382 162.000,148.420 163.028,147.349 164.284 M291.600 162.425 C 291.600 162.880,292.675 162.927,292.949 162.483 C 293.056 162.309,292.797 162.140,292.372 162.108 C 291.948 162.076,291.600 162.219,291.600 162.425 M198.800 164.000 C 198.330 164.660,198.036 165.200,198.146 165.200 C 198.256 165.200,198.730 164.660,199.200 164.000 C 199.670 163.340,199.964 162.800,199.854 162.800 C 199.744 162.800,199.270 163.340,198.800 164.000 M150.581 166.100 L 149.000 167.800 150.700 166.219 C 152.281 164.748,152.584 164.400,152.281 164.400 C 152.216 164.400,151.451 165.165,150.581 166.100 M207.676 166.984 C 207.705 167.745,207.852 168.292,208.003 168.198 C 208.417 167.943,208.401 165.600,207.985 165.600 C 207.787 165.600,207.648 166.223,207.676 166.984 " stroke="none" fill="#dedee4" fill-rule="evenodd"></path><path id="path3" d="M257.600 110.753 C 257.600 110.948,257.240 111.201,256.800 111.316 C 255.815 111.573,255.738 112.405,256.700 112.387 C 257.674 112.370,258.935 111.342,258.616 110.827 C 258.298 110.311,257.600 110.261,257.600 110.753 M237.355 113.100 C 236.918 114.490,236.401 115.423,235.359 116.700 C 234.775 117.415,234.395 118.000,234.515 118.000 C 234.989 118.000,237.270 114.751,237.597 113.611 C 237.960 112.346,237.739 111.879,237.355 113.100 M250.480 112.880 C 250.216 113.144,250.000 113.588,250.000 113.867 C 250.000 114.146,249.197 114.965,248.216 115.687 C 247.234 116.409,246.424 117.158,246.416 117.352 C 246.388 117.978,250.511 114.192,250.848 113.282 C 251.220 112.275,251.156 112.204,250.480 112.880 M191.744 118.249 C 189.025 121.026,186.800 123.470,186.800 123.680 C 186.800 123.890,187.655 123.106,188.700 121.937 C 194.987 114.906,194.824 115.022,195.600 117.000 C 195.902 117.770,196.296 118.400,196.475 118.400 C 196.938 118.400,196.879 117.296,196.400 117.000 C 195.772 116.612,195.932 114.738,196.662 113.931 C 197.026 113.529,197.181 113.200,197.006 113.200 C 196.831 113.200,194.463 115.472,191.744 118.249 M244.567 114.583 C 243.705 115.344,243.225 115.974,243.500 115.983 C 243.775 115.993,244.000 115.826,244.000 115.614 C 244.000 115.402,244.672 114.772,245.493 114.214 C 246.314 113.656,246.794 113.200,246.559 113.200 C 246.325 113.200,245.428 113.823,244.567 114.583 M248.757 118.110 C 245.764 120.799,243.373 123.069,243.445 123.154 C 243.551 123.280,250.496 117.198,251.200 116.363 C 251.310 116.232,252.269 115.467,253.331 114.663 C 254.392 113.858,255.022 113.204,254.731 113.210 C 254.439 113.215,251.751 115.420,248.757 118.110 M321.800 113.926 C 319.879 115.607,314.800 121.236,314.800 121.685 C 314.800 121.956,315.108 121.733,315.484 121.189 C 315.860 120.645,316.805 119.558,317.584 118.773 C 322.067 114.255,324.112 111.904,321.800 113.926 M187.035 117.627 C 185.565 119.412,184.885 119.954,184.335 119.779 C 183.931 119.651,183.600 119.738,183.600 119.973 C 183.600 121.137,185.325 120.146,187.385 117.800 C 188.640 116.370,189.517 115.209,189.334 115.221 C 189.150 115.233,188.116 116.315,187.035 117.627 M241.573 117.900 C 239.345 120.304,238.164 121.749,238.659 121.466 C 239.167 121.175,243.373 116.400,243.121 116.400 C 243.034 116.400,242.337 117.075,241.573 117.900 M244.200 119.074 C 243.320 119.872,241.880 121.164,241.000 121.944 C 240.120 122.724,238.077 124.586,236.459 126.081 C 233.820 128.522,231.894 129.774,233.200 128.200 C 233.474 127.870,233.595 127.600,233.469 127.600 C 233.051 127.600,231.084 130.418,231.331 130.664 C 231.595 130.928,232.576 130.112,238.580 124.632 C 244.813 118.943,246.215 117.618,246.000 117.620 C 245.890 117.621,245.080 118.275,244.200 119.074 M232.487 120.216 C 230.790 122.523,231.083 122.514,232.979 120.200 C 233.790 119.210,234.307 118.407,234.127 118.416 C 233.947 118.424,233.209 119.234,232.487 120.216 M236.039 124.300 C 234.924 125.565,234.009 126.749,234.006 126.931 C 234.003 127.113,234.483 126.663,235.072 125.931 C 235.662 125.199,236.687 124.015,237.351 123.300 C 238.014 122.585,238.447 122.000,238.312 122.000 C 238.177 122.000,237.154 123.035,236.039 124.300 M238.187 128.013 C 236.002 130.206,234.346 132.000,234.505 132.000 C 234.890 132.000,242.502 124.368,242.309 124.175 C 242.227 124.093,240.372 125.820,238.187 128.013 M185.201 125.398 C 184.686 125.948,184.339 126.464,184.432 126.546 C 184.524 126.628,185.019 126.178,185.530 125.547 C 186.676 124.135,186.474 124.044,185.201 125.398 M227.777 126.300 C 225.617 129.000,225.476 129.200,225.728 129.200 C 225.852 129.200,226.784 128.120,227.800 126.800 C 229.987 123.958,229.968 123.560,227.777 126.300 M298.800 125.951 C 298.800 126.456,297.556 127.526,295.000 129.221 C 291.217 131.729,289.844 132.885,292.700 131.158 C 298.101 127.893,301.039 125.200,299.200 125.200 C 298.980 125.200,298.800 125.538,298.800 125.951 M224.276 130.174 C 223.878 130.476,223.711 130.821,223.905 130.941 C 224.099 131.061,224.558 130.808,224.925 130.380 C 225.693 129.482,225.337 129.370,224.276 130.174 M289.200 132.833 L 288.200 133.648 289.500 133.014 C 290.215 132.665,290.800 132.294,290.800 132.190 C 290.800 131.792,290.163 132.048,289.200 132.833 M130.200 133.600 C 129.859 134.260,129.669 134.800,129.779 134.800 C 129.889 134.800,130.259 134.260,130.600 133.600 C 130.941 132.940,131.131 132.400,131.021 132.400 C 130.911 132.400,130.541 132.940,130.200 133.600 M296.700 134.229 C 295.205 135.040,295.296 135.378,296.800 134.600 C 297.460 134.259,298.000 133.894,298.000 133.790 C 298.000 133.532,297.957 133.547,296.700 134.229 M228.277 138.500 C 226.403 140.535,224.931 142.261,225.004 142.336 C 225.078 142.410,225.827 141.692,226.669 140.740 C 227.511 139.788,229.081 138.062,230.158 136.905 C 231.235 135.747,232.019 134.800,231.900 134.800 C 231.781 134.800,230.150 136.465,228.277 138.500 M283.300 135.834 C 282.585 136.146,282.000 136.482,282.000 136.580 C 282.000 136.875,284.384 135.949,284.624 135.561 C 284.891 135.129,284.929 135.121,283.300 135.834 M292.000 136.800 C 291.230 137.222,290.744 137.574,290.920 137.583 C 291.344 137.605,293.600 136.432,293.600 136.190 C 293.600 135.928,293.577 135.937,292.000 136.800 M127.800 138.000 C 127.459 138.660,127.269 139.200,127.379 139.200 C 127.489 139.200,127.859 138.660,128.200 138.000 C 128.541 137.340,128.731 136.800,128.621 136.800 C 128.511 136.800,128.141 137.340,127.800 138.000 M234.128 137.628 C 232.379 138.494,231.012 140.112,231.343 140.924 C 231.455 141.198,231.550 141.124,231.568 140.749 C 231.586 140.391,231.870 139.874,232.200 139.600 C 232.908 139.013,232.910 139.023,232.421 140.726 C 232.198 141.506,232.187 142.404,232.396 142.923 C 232.678 143.623,232.754 143.421,232.775 141.929 C 232.795 140.401,232.993 139.906,233.854 139.229 C 234.434 138.773,234.740 138.400,234.534 138.400 C 234.328 138.400,233.947 138.613,233.687 138.873 C 233.426 139.134,233.105 139.238,232.972 139.105 C 232.382 138.515,235.022 137.429,237.046 137.429 C 238.214 137.429,238.952 137.290,238.685 137.120 C 237.811 136.565,235.831 136.785,234.128 137.628 M280.696 137.037 C 280.566 137.167,279.771 137.519,278.930 137.819 C 278.080 138.123,277.755 138.365,278.200 138.366 C 279.028 138.366,282.136 136.847,281.367 136.817 C 281.128 136.808,280.827 136.907,280.696 137.037 M242.569 139.887 C 243.431 140.815,244.601 142.422,245.168 143.460 C 245.736 144.497,246.467 145.432,246.793 145.537 C 247.248 145.684,247.227 145.570,246.703 145.046 C 246.327 144.670,245.740 143.774,245.399 143.054 C 245.057 142.333,243.928 140.947,242.889 139.972 L 241.001 138.200 242.569 139.887 M239.200 139.364 C 239.200 139.540,239.673 140.057,240.250 140.511 C 241.361 141.385,242.776 144.085,242.791 145.359 C 242.799 146.066,242.537 146.104,238.900 145.912 C 236.755 145.799,235.450 145.845,236.000 146.013 C 236.550 146.182,238.311 146.338,239.913 146.360 C 243.329 146.407,243.643 146.074,242.644 143.459 C 242.065 141.945,239.200 138.538,239.200 139.364 M124.600 144.000 C 124.259 144.660,124.069 145.200,124.179 145.200 C 124.289 145.200,124.659 144.660,125.000 144.000 C 125.341 143.340,125.531 142.800,125.421 142.800 C 125.311 142.800,124.941 143.340,124.600 144.000 M131.311 144.100 C 130.513 145.132,130.364 145.758,131.145 144.800 C 131.952 143.810,131.966 143.808,132.567 144.600 C 133.075 145.269,133.177 145.292,133.187 144.743 C 133.194 144.381,132.915 143.976,132.567 143.843 C 131.739 143.525,131.759 143.521,131.311 144.100 M129.386 147.300 L 128.752 148.600 129.567 147.600 C 130.352 146.637,130.608 146.000,130.210 146.000 C 130.106 146.000,129.735 146.585,129.386 147.300 M233.600 146.619 C 233.600 146.913,236.049 148.050,236.409 147.924 C 236.604 147.856,236.051 147.498,235.182 147.130 C 234.312 146.761,233.600 146.531,233.600 146.619 M237.296 148.229 C 237.411 148.344,238.788 148.576,240.357 148.743 C 241.925 148.911,243.071 148.925,242.904 148.775 C 242.551 148.458,236.983 147.916,237.296 148.229 M164.893 150.000 C 164.618 150.440,164.531 150.800,164.700 150.800 C 164.869 150.800,165.232 150.440,165.507 150.000 C 165.782 149.560,165.869 149.200,165.700 149.200 C 165.531 149.200,165.168 149.560,164.893 150.000 M126.620 152.360 C 126.052 153.482,125.664 154.400,125.759 154.400 C 126.051 154.400,128.023 150.690,127.833 150.499 C 127.734 150.401,127.189 151.238,126.620 152.360 M242.582 154.182 C 242.429 155.202,242.394 156.127,242.504 156.237 C 242.614 156.347,242.829 155.602,242.982 154.582 C 243.135 153.561,243.170 152.637,243.060 152.527 C 242.950 152.417,242.735 153.161,242.582 154.182 M118.641 155.823 C 117.236 158.891,117.356 159.147,118.846 156.260 C 119.510 154.973,119.970 153.836,119.868 153.734 C 119.766 153.632,119.214 154.572,118.641 155.823 M157.360 157.500 C 152.505 162.995,149.436 166.650,151.242 164.784 C 152.209 163.786,153.630 162.253,154.400 161.377 C 158.395 156.836,160.449 154.400,160.283 154.400 C 160.181 154.400,158.866 155.795,157.360 157.500 M153.316 157.901 C 151.949 159.605,150.179 161.765,149.382 162.700 C 148.586 163.635,148.023 164.400,148.131 164.400 C 148.402 164.400,154.481 157.264,155.373 155.900 C 156.634 153.971,155.873 154.711,153.316 157.901 M246.864 156.250 C 246.829 156.718,246.705 157.708,246.589 158.450 C 246.396 159.686,246.415 159.717,246.808 158.814 C 247.045 158.272,247.168 157.282,247.083 156.614 C 246.991 155.897,246.902 155.748,246.864 156.250 M204.729 156.700 C 203.688 157.924,202.228 160.154,202.630 159.905 C 203.077 159.629,205.732 156.000,205.487 156.000 C 205.397 156.000,205.056 156.315,204.729 156.700 M241.873 157.753 C 241.723 158.145,241.611 158.766,241.625 159.133 C 241.642 159.575,241.781 159.474,242.037 158.834 C 242.249 158.303,242.361 157.682,242.285 157.454 C 242.209 157.227,242.024 157.361,241.873 157.753 M121.379 162.442 C 120.154 164.885,119.247 166.980,119.364 167.098 C 119.482 167.215,119.750 166.858,119.961 166.304 C 120.171 165.750,121.168 163.655,122.176 161.648 C 123.184 159.642,123.918 158.000,123.807 158.000 C 123.697 158.000,122.604 159.999,121.379 162.442 M116.623 160.206 C 115.760 162.272,115.874 162.506,116.847 160.662 C 117.293 159.816,117.565 159.032,117.452 158.919 C 117.339 158.806,116.966 159.385,116.623 160.206 M201.529 161.100 C 200.578 162.218,199.128 164.400,199.335 164.400 C 199.440 164.400,200.172 163.500,200.962 162.400 C 202.385 160.419,202.677 159.750,201.529 161.100 M246.054 161.067 C 246.025 161.544,245.896 162.264,245.770 162.667 C 245.552 163.361,245.564 163.362,245.996 162.688 C 246.247 162.297,246.375 161.577,246.281 161.088 C 246.109 160.201,246.109 160.201,246.054 161.067 M241.049 161.415 C 240.912 161.773,240.815 162.366,240.834 162.733 C 240.853 163.100,241.027 162.869,241.221 162.220 C 241.598 160.958,241.465 160.333,241.049 161.415 M240.249 164.615 C 240.112 164.973,240.016 165.656,240.036 166.133 C 240.062 166.747,240.185 166.608,240.459 165.656 C 240.857 164.272,240.694 163.458,240.249 164.615 M245.246 164.467 C 245.221 164.834,245.096 165.464,244.970 165.867 C 244.752 166.562,244.763 166.563,245.197 165.887 C 245.448 165.496,245.573 164.866,245.473 164.487 C 245.311 163.868,245.288 163.866,245.246 164.467 M207.000 164.800 C 208.093 165.269,208.400 165.269,208.400 164.800 C 208.400 164.580,207.905 164.413,207.300 164.428 C 206.325 164.453,206.291 164.495,207.000 164.800 M146.434 166.153 L 145.469 167.400 146.613 166.312 C 147.243 165.714,147.677 165.153,147.579 165.065 C 147.480 164.977,146.965 165.467,146.434 166.153 M197.769 166.300 C 197.149 167.125,196.453 167.932,196.221 168.094 C 195.940 168.290,195.960 168.390,196.281 168.394 C 196.545 168.397,197.319 167.590,198.000 166.600 C 199.500 164.420,199.338 164.210,197.769 166.300 M205.229 166.254 C 204.773 166.834,204.415 167.689,204.434 168.154 C 204.461 168.820,204.542 168.757,204.811 167.857 C 205.000 167.228,205.462 166.373,205.839 165.957 C 206.216 165.541,206.419 165.200,206.291 165.200 C 206.163 165.200,205.685 165.674,205.229 166.254 M148.406 168.300 C 148.403 168.795,148.580 169.200,148.800 169.200 C 149.301 169.200,149.301 168.776,148.800 168.000 C 148.486 167.515,148.411 167.572,148.406 168.300 M142.493 169.200 C 142.197 169.674,142.157 170.000,142.397 170.000 C 142.618 170.000,142.800 169.820,142.800 169.600 C 142.800 169.380,143.070 169.200,143.400 169.200 C 143.730 169.200,144.000 169.020,144.000 168.800 C 144.000 168.105,143.013 168.367,142.493 169.200 " stroke="none" fill="#b49cf4" fill-rule="evenodd"></path><path id="path4" d="M189.228 114.300 C 189.253 115.275,189.295 115.309,189.600 114.600 C 190.069 113.507,190.069 113.200,189.600 113.200 C 189.380 113.200,189.213 113.695,189.228 114.300 M249.200 113.871 C 249.200 114.240,248.615 115.066,247.900 115.707 C 246.696 116.786,246.726 116.778,248.300 115.603 C 249.875 114.426,250.538 113.200,249.600 113.200 C 249.380 113.200,249.200 113.502,249.200 113.871 M320.175 116.100 L 319.000 117.400 320.300 116.225 C 321.015 115.579,321.600 114.994,321.600 114.925 C 321.600 114.616,321.270 114.888,320.175 116.100 M192.781 117.500 C 191.798 118.545,190.365 120.129,189.597 121.021 C 188.828 121.912,189.587 121.192,191.282 119.421 C 192.977 117.649,194.552 116.245,194.782 116.300 C 195.012 116.355,195.200 116.220,195.200 116.000 C 195.200 115.219,194.547 115.624,192.781 117.500 M242.001 117.798 C 241.486 118.348,241.139 118.864,241.232 118.946 C 241.324 119.028,241.819 118.578,242.330 117.947 C 243.476 116.535,243.274 116.444,242.001 117.798 M249.375 118.100 L 248.200 119.400 249.500 118.225 C 250.215 117.579,250.800 116.994,250.800 116.925 C 250.800 116.616,250.470 116.888,249.375 118.100 M244.175 118.900 L 243.000 120.200 244.300 119.025 C 245.015 118.379,245.600 117.794,245.600 117.725 C 245.600 117.416,245.270 117.688,244.175 118.900 M185.506 119.066 C 184.956 119.616,184.732 119.642,184.220 119.217 C 183.872 118.927,183.600 118.880,183.600 119.108 C 183.600 119.956,184.954 120.024,185.762 119.216 C 186.211 118.767,186.486 118.400,186.375 118.400 C 186.263 118.400,185.872 118.700,185.506 119.066 M232.744 119.500 C 231.593 120.889,231.106 121.600,231.304 121.600 C 231.414 121.600,231.986 120.970,232.573 120.200 C 233.663 118.771,233.795 118.232,232.744 119.500 M239.375 120.900 L 238.200 122.200 239.500 121.025 C 240.215 120.379,240.800 119.794,240.800 119.725 C 240.800 119.416,240.470 119.688,239.375 120.900 M241.375 121.300 L 240.200 122.600 241.500 121.425 C 242.215 120.779,242.800 120.194,242.800 120.125 C 242.800 119.816,242.470 120.088,241.375 121.300 M245.381 121.700 L 243.800 123.400 245.500 121.819 C 247.081 120.348,247.384 120.000,247.081 120.000 C 247.016 120.000,246.251 120.765,245.381 121.700 M236.131 124.694 C 235.069 125.955,233.887 127.337,233.504 127.765 C 233.122 128.192,232.888 128.622,232.986 128.719 C 233.245 128.978,235.950 126.738,237.800 124.734 L 239.400 123.001 237.906 124.373 C 236.020 126.105,235.638 125.821,237.240 123.878 C 237.910 123.065,238.369 122.400,238.260 122.400 C 238.151 122.400,237.193 123.432,236.131 124.694 M228.975 124.268 C 228.359 125.076,228.059 125.611,228.309 125.456 C 228.821 125.140,230.553 122.800,230.275 122.800 C 230.176 122.800,229.591 123.461,228.975 124.268 M299.376 133.022 C 298.636 133.615,298.643 133.623,299.531 133.191 C 300.043 132.942,300.718 132.837,301.031 132.957 C 301.344 133.077,301.600 133.001,301.600 132.787 C 301.600 132.187,300.240 132.330,299.376 133.022 M295.900 135.029 C 294.405 135.840,294.496 136.178,296.000 135.400 C 296.660 135.059,297.200 134.694,297.200 134.590 C 297.200 134.332,297.157 134.347,295.900 135.029 M230.180 136.900 C 226.033 141.345,225.453 142.000,225.670 142.000 C 225.797 142.000,227.291 140.470,228.988 138.600 C 230.686 136.730,232.006 135.200,231.921 135.200 C 231.836 135.200,231.053 135.965,230.180 136.900 M277.200 137.600 C 277.200 137.820,277.695 137.987,278.300 137.972 C 279.275 137.947,279.309 137.905,278.600 137.600 C 277.507 137.131,277.200 137.131,277.200 137.600 M233.903 139.300 C 233.385 139.795,233.240 140.000,233.580 139.756 C 233.921 139.512,234.560 139.112,235.000 138.868 C 235.440 138.624,235.585 138.419,235.322 138.412 C 235.060 138.405,234.421 138.805,233.903 139.300 M242.981 139.953 C 243.851 140.859,244.630 141.600,244.712 141.600 C 245.042 141.600,242.946 139.265,242.200 138.802 C 241.760 138.529,242.112 139.047,242.981 139.953 M230.618 141.542 C 230.489 141.950,230.544 142.715,230.740 143.242 C 231.039 144.043,231.091 143.922,231.056 142.500 C 231.008 140.595,230.956 140.479,230.618 141.542 M246.132 144.462 C 246.672 145.327,247.600 145.444,247.600 144.647 C 247.600 144.342,247.166 144.010,246.635 143.909 C 245.783 143.746,245.725 143.810,246.132 144.462 M242.400 144.982 C 242.400 145.419,241.731 145.598,239.700 145.703 L 237.000 145.843 239.900 145.922 C 242.559 145.994,242.800 145.934,242.800 145.200 C 242.800 144.760,242.710 144.400,242.600 144.400 C 242.490 144.400,242.400 144.662,242.400 144.982 M236.800 148.382 C 237.130 148.605,237.745 148.791,238.167 148.794 C 239.190 148.802,238.871 148.573,237.400 148.244 C 236.524 148.048,236.362 148.085,236.800 148.382 M242.078 149.048 C 242.526 149.182,242.811 149.786,242.917 150.828 L 243.078 152.406 243.039 150.706 C 243.007 149.316,242.855 148.992,242.200 148.926 C 241.618 148.868,241.585 148.901,242.078 149.048 M159.206 155.794 C 158.463 156.561,157.932 157.250,158.027 157.325 C 158.122 157.400,158.806 156.773,159.546 155.931 C 161.229 154.018,161.012 153.931,159.206 155.794 M204.975 155.868 C 204.359 156.676,204.059 157.211,204.309 157.056 C 204.821 156.740,206.553 154.400,206.275 154.400 C 206.176 154.400,205.591 155.061,204.975 155.868 M246.629 159.429 C 246.481 160.015,246.438 160.572,246.532 160.666 C 246.627 160.760,246.824 160.358,246.971 159.771 C 247.119 159.185,247.162 158.628,247.068 158.534 C 246.973 158.440,246.776 158.842,246.629 159.429 M150.575 160.900 L 149.400 162.200 150.700 161.025 C 151.415 160.379,152.000 159.794,152.000 159.725 C 152.000 159.416,151.670 159.688,150.575 160.900 M153.775 162.100 L 152.600 163.400 153.900 162.225 C 154.615 161.579,155.200 160.994,155.200 160.925 C 155.200 160.616,154.870 160.888,153.775 162.100 M150.981 165.300 L 149.400 167.000 151.100 165.419 C 152.681 163.948,152.984 163.600,152.681 163.600 C 152.616 163.600,151.851 164.365,150.981 165.300 M198.344 165.100 C 197.193 166.489,196.706 167.200,196.904 167.200 C 197.014 167.200,197.586 166.570,198.173 165.800 C 199.263 164.371,199.395 163.832,198.344 165.100 M245.049 166.215 C 244.912 166.573,244.815 167.166,244.834 167.533 C 244.853 167.900,245.027 167.669,245.221 167.020 C 245.598 165.758,245.465 165.133,245.049 166.215 " stroke="none" fill="#c8aafa" fill-rule="evenodd"></path></g></svg>