<svg id="svg" version="1.1" xmlns="http://www.w3.org/2000/svg" xmlns:xlink="http://www.w3.org/1999/xlink" width="400" height="400" viewBox="0, 0, 400,400"><g id="svgg"><path id="path0" d="M63.017 160.773 C 62.872 161.008,62.133 161.200,61.376 161.200 C 59.633 161.200,57.893 162.685,58.946 163.274 C 59.544 163.608,59.600 166.854,59.600 201.220 L 59.600 238.800 200.002 238.800 L 340.404 238.800 340.302 200.100 L 340.200 161.400 202.400 161.200 C 126.610 161.090,64.303 160.853,63.940 160.673 C 63.550 160.479,63.173 160.520,63.017 160.773 M336.400 200.000 L 336.400 235.600 200.000 235.600 L 63.600 235.600 63.600 200.000 L 63.600 164.400 200.000 164.400 L 336.400 164.400 336.400 200.000 " stroke="none" fill="#040404" fill-rule="evenodd"></path><path id="path1" d="M109.937 168.752 C 111.144 169.518,107.448 169.715,88.800 169.880 L 69.400 170.051 68.400 171.140 C 67.812 171.781,67.433 172.636,67.479 173.215 C 67.523 173.757,67.573 186.522,67.590 201.582 L 67.622 228.964 69.061 230.282 C 70.710 231.792,73.892 232.165,75.071 230.986 C 75.687 230.370,77.260 230.540,77.533 231.253 C 77.746 231.806,196.300 231.700,196.484 231.147 C 196.568 230.897,197.258 230.492,198.018 230.247 L 199.400 229.800 199.513 225.100 C 199.577 222.414,199.791 220.400,200.013 220.400 C 200.577 220.400,200.487 219.307,199.900 219.033 C 199.500 218.847,199.500 218.753,199.900 218.567 C 200.552 218.263,200.552 215.328,199.900 215.064 C 199.509 214.905,199.516 214.779,199.934 214.486 C 200.362 214.185,200.331 214.059,199.777 213.847 C 199.013 213.553,199.207 208.233,200.011 207.429 C 200.517 206.923,200.511 205.471,200.001 204.961 C 199.749 204.709,199.598 198.294,199.591 187.500 C 199.579 168.978,199.550 168.735,197.458 169.477 C 196.986 169.645,196.060 169.760,195.400 169.733 C 193.811 169.668,195.557 169.661,167.476 169.851 C 143.340 170.014,139.150 169.852,139.812 168.781 C 139.959 168.542,134.339 168.402,124.724 168.406 C 116.146 168.410,109.636 168.562,109.937 168.752 M67.293 170.000 C 67.293 170.770,67.375 171.085,67.476 170.700 C 67.576 170.315,67.576 169.685,67.476 169.300 C 67.375 168.915,67.293 169.230,67.293 170.000 M130.100 169.099 C 127.405 169.168,122.995 169.168,120.300 169.099 C 117.605 169.030,119.810 168.973,125.200 168.973 C 130.590 168.973,132.795 169.030,130.100 169.099 M66.893 181.600 C 66.893 182.370,66.975 182.685,67.076 182.300 C 67.176 181.915,67.176 181.285,67.076 180.900 C 66.975 180.515,66.893 180.830,66.893 181.600 M149.798 191.855 C 150.163 191.995,150.623 192.535,150.821 193.055 C 151.020 193.580,151.496 193.988,151.890 193.972 C 152.509 193.947,152.497 193.899,151.800 193.600 C 151.166 193.327,151.324 193.250,152.562 193.228 C 154.256 193.198,156.800 194.754,156.800 195.820 C 156.800 196.139,156.976 196.400,157.192 196.400 C 159.048 196.400,159.894 206.071,158.256 208.570 C 157.765 209.320,157.333 209.569,156.811 209.404 C 156.402 209.274,155.952 209.355,155.810 209.584 C 155.669 209.813,155.743 210.000,155.976 210.000 C 156.209 210.000,156.400 210.270,156.400 210.600 C 156.400 210.930,156.230 211.200,156.022 211.200 C 155.814 211.200,155.406 211.695,155.116 212.300 C 154.826 212.905,154.367 213.382,154.095 213.360 C 153.823 213.338,152.779 213.293,151.776 213.260 C 150.675 213.224,150.051 213.041,150.200 212.800 C 150.336 212.580,150.267 212.400,150.047 212.400 C 149.827 212.400,149.536 212.580,149.400 212.800 C 148.221 214.707,141.453 212.741,141.607 210.536 C 141.636 210.131,141.722 206.234,141.800 201.875 C 141.974 192.089,142.118 191.829,147.467 191.654 C 148.384 191.625,149.433 191.715,149.798 191.855 M176.094 191.960 C 176.697 192.189,177.173 192.746,177.290 193.361 C 177.529 194.607,177.257 194.946,176.514 194.329 C 176.079 193.967,175.982 193.988,176.077 194.422 C 176.170 194.845,175.622 194.994,173.800 195.039 C 172.480 195.073,170.893 195.302,170.274 195.550 C 169.655 195.797,168.611 196.000,167.955 196.000 L 166.762 196.000 166.881 198.432 L 167.000 200.864 170.697 201.020 C 174.411 201.177,177.089 202.008,176.573 202.844 C 176.433 203.070,176.058 203.154,175.739 203.032 C 175.415 202.907,175.266 202.984,175.403 203.205 C 175.537 203.422,175.356 203.600,175.000 203.600 C 174.644 203.600,174.464 203.420,174.600 203.200 C 174.753 202.952,174.004 202.800,172.624 202.800 C 171.128 202.800,170.390 202.964,170.368 203.300 C 170.343 203.700,170.296 203.700,170.135 203.300 C 170.024 203.025,169.476 202.800,168.918 202.800 C 168.074 202.800,167.984 202.899,168.385 203.382 C 169.041 204.172,168.571 204.800,167.326 204.800 C 166.390 204.800,166.322 204.910,166.550 206.050 C 166.688 206.738,166.800 208.447,166.800 209.850 C 166.800 211.378,166.970 212.400,167.224 212.400 C 167.457 212.400,167.548 212.239,167.426 212.042 C 167.304 211.845,167.468 211.583,167.789 211.459 C 168.111 211.336,168.471 211.392,168.590 211.583 C 168.708 211.775,168.579 212.023,168.302 212.134 C 168.026 212.246,168.475 212.351,169.300 212.368 C 170.235 212.388,170.812 212.212,170.832 211.900 C 170.857 211.500,170.904 211.500,171.065 211.900 C 171.176 212.175,171.687 212.400,172.200 212.400 C 172.713 212.400,173.238 212.175,173.367 211.900 C 173.553 211.500,173.647 211.500,173.833 211.900 C 173.962 212.175,174.637 212.379,175.333 212.353 L 176.600 212.305 175.400 212.000 C 174.206 211.696,174.207 211.694,175.700 211.647 C 176.934 211.608,177.200 211.738,177.200 212.376 C 177.200 213.340,175.950 213.480,169.800 213.200 L 165.400 213.000 165.200 211.090 C 165.090 210.040,164.820 209.185,164.600 209.190 C 164.380 209.196,164.200 208.525,164.200 207.700 C 164.200 206.713,164.371 206.234,164.700 206.300 C 165.264 206.413,165.393 205.740,164.847 205.533 C 164.074 205.241,163.917 202.140,164.639 201.418 C 165.220 200.837,165.240 200.672,164.765 200.378 C 164.373 200.135,164.202 199.250,164.207 197.490 C 164.215 194.168,165.898 192.136,168.814 191.926 C 173.346 191.599,175.167 191.607,176.094 191.960 M280.974 192.123 C 280.548 192.364,278.828 192.533,277.151 192.499 C 275.304 192.462,273.848 192.627,273.457 192.919 C 272.553 193.594,272.164 210.448,273.001 212.725 C 273.300 213.536,273.556 213.998,273.572 213.750 C 273.587 213.503,274.140 213.192,274.800 213.060 L 276.000 212.820 276.000 209.708 C 276.000 206.622,276.011 206.591,277.221 206.055 C 278.463 205.505,280.000 206.203,280.000 207.315 C 280.000 207.530,280.359 208.017,280.797 208.398 C 281.236 208.778,281.863 209.732,282.191 210.517 C 282.940 212.309,283.385 212.590,285.500 212.608 C 287.391 212.624,287.581 212.431,286.400 211.693 C 285.960 211.418,285.600 210.930,285.600 210.609 C 285.600 210.287,285.246 209.394,284.814 208.624 C 284.077 207.312,284.070 207.197,284.714 206.789 C 285.208 206.475,285.260 206.295,284.900 206.143 C 284.321 205.900,284.218 204.800,284.774 204.800 C 284.980 204.800,285.691 203.733,286.354 202.428 C 287.972 199.245,287.747 197.896,285.149 195.186 C 284.077 194.068,283.200 193.027,283.200 192.873 C 283.200 192.184,281.738 191.691,280.974 192.123 M101.793 192.389 C 101.926 192.603,102.722 192.964,103.563 193.190 C 104.911 193.553,107.200 195.885,107.200 196.895 C 107.200 198.079,106.336 199.245,105.793 198.794 C 105.467 198.524,105.200 198.445,105.200 198.621 C 105.200 198.796,104.750 198.517,104.200 198.000 C 103.650 197.483,103.200 196.822,103.200 196.530 C 103.200 196.239,102.885 195.994,102.500 195.987 C 102.115 195.980,101.451 195.710,101.024 195.387 C 99.300 194.084,95.242 195.199,94.580 197.157 C 94.349 197.841,93.958 198.602,93.711 198.849 C 93.464 199.096,93.351 199.527,93.459 199.808 C 93.566 200.089,93.480 200.427,93.267 200.559 C 93.049 200.693,92.962 201.918,93.069 203.358 C 93.186 204.948,93.095 206.017,92.829 206.182 C 92.593 206.328,92.400 206.717,92.400 207.047 C 92.400 207.377,92.565 207.545,92.766 207.421 C 92.967 207.297,93.192 207.342,93.266 207.522 C 93.935 209.150,97.789 211.204,99.746 210.975 C 103.466 210.540,106.161 206.510,103.776 204.948 C 102.591 204.171,103.066 203.616,104.924 203.606 C 105.570 203.603,105.942 203.430,105.800 203.200 C 105.420 202.584,105.903 202.725,106.795 203.489 C 107.651 204.222,107.984 207.600,107.200 207.600 C 106.980 207.600,106.800 208.061,106.800 208.624 C 106.800 209.336,106.648 209.556,106.300 209.347 C 105.919 209.118,105.906 209.184,106.245 209.623 C 107.156 210.805,107.259 214.400,106.381 214.400 C 105.952 214.400,105.600 214.134,105.600 213.809 C 105.600 212.963,103.856 211.927,102.991 212.259 C 102.438 212.471,102.349 212.403,102.611 211.968 C 102.903 211.483,102.854 211.480,102.277 211.949 C 101.544 212.543,101.349 213.002,102.000 212.600 C 102.757 212.132,102.399 213.062,101.500 213.897 C 100.301 215.011,97.150 214.868,95.843 213.640 C 95.351 213.178,94.600 212.789,94.174 212.775 C 93.159 212.743,90.902 209.625,90.018 207.034 C 88.428 202.376,89.933 195.417,92.362 196.188 C 92.932 196.369,95.600 195.417,95.600 195.032 C 95.600 194.693,93.591 195.109,93.046 195.562 C 92.490 196.023,92.400 195.992,92.400 195.338 C 92.400 193.989,93.544 192.771,94.570 193.028 C 95.196 193.185,95.569 193.057,95.733 192.630 C 96.011 191.907,101.364 191.694,101.793 192.389 M116.720 193.800 C 116.787 194.680,116.863 198.730,116.890 202.800 C 116.945 211.044,117.116 211.568,119.761 211.628 C 120.816 211.652,120.881 211.707,120.200 212.000 C 119.615 212.251,119.938 212.341,121.400 212.332 C 122.978 212.323,123.189 212.253,122.400 212.000 C 121.543 211.725,121.517 211.674,122.220 211.640 C 122.671 211.618,123.256 211.384,123.520 211.120 C 123.893 210.747,124.107 210.747,124.480 211.120 C 124.744 211.384,125.414 211.600,125.969 211.600 L 126.978 211.600 126.106 212.472 C 125.319 213.259,124.871 213.335,121.554 213.250 C 118.881 213.182,117.782 213.299,117.537 213.678 C 117.266 214.098,117.116 214.083,116.770 213.600 C 116.445 213.148,116.289 213.124,116.136 213.500 C 115.840 214.229,114.663 214.135,114.943 213.405 C 115.068 213.077,115.043 212.836,114.886 212.868 C 113.391 213.175,113.303 212.600,113.382 203.077 C 113.467 192.849,113.660 191.860,115.527 192.076 C 116.467 192.185,116.615 192.398,116.720 193.800 M252.142 193.007 C 252.014 193.340,252.020 194.060,252.155 194.607 C 252.290 195.153,252.505 196.095,252.632 196.700 C 252.760 197.305,252.975 198.070,253.110 198.400 C 253.244 198.730,253.368 199.188,253.384 199.417 C 253.401 199.646,253.828 200.276,254.335 200.817 C 254.980 201.506,255.194 202.109,255.051 202.834 C 254.938 203.403,255.112 204.380,255.437 205.006 C 255.762 205.632,256.137 207.192,256.271 208.472 C 256.404 209.752,256.675 210.800,256.871 210.800 C 257.068 210.800,257.568 211.592,257.983 212.560 L 258.737 214.320 261.169 214.320 L 263.600 214.320 263.600 212.854 C 263.600 212.048,263.957 210.722,264.393 209.909 C 264.829 209.095,265.087 208.171,264.966 207.855 C 264.845 207.539,264.938 207.162,265.173 207.017 C 265.408 206.872,265.600 206.425,265.600 206.025 C 265.600 205.625,265.852 205.089,266.160 204.833 C 266.468 204.578,266.703 203.754,266.681 203.003 C 266.660 202.252,266.911 201.314,267.238 200.919 C 267.980 200.024,268.921 197.319,268.646 196.874 C 268.533 196.692,268.710 196.025,269.038 195.392 C 270.160 193.229,269.715 192.600,267.062 192.600 C 265.776 192.600,264.622 192.780,264.498 193.000 C 264.373 193.220,264.419 193.267,264.599 193.103 C 265.059 192.687,266.000 193.558,266.000 194.400 C 266.000 194.786,265.752 195.307,265.450 195.559 C 265.147 195.810,264.782 196.754,264.637 197.657 C 264.493 198.561,264.034 200.048,263.617 200.962 C 263.201 201.877,262.875 202.889,262.893 203.213 C 263.035 205.724,261.964 207.235,260.271 206.911 C 259.161 206.699,258.400 205.164,258.400 203.135 C 258.400 202.505,258.241 201.677,258.047 201.295 C 257.403 200.029,256.888 198.627,256.176 196.200 C 255.109 192.568,252.963 190.868,252.142 193.007 M134.000 194.024 C 134.000 194.477,134.180 194.736,134.400 194.600 C 134.662 194.438,134.800 197.263,134.800 202.776 C 134.800 208.125,134.654 211.200,134.400 211.200 C 134.180 211.200,134.000 211.830,134.000 212.600 C 134.000 213.619,133.825 214.000,133.357 214.000 C 132.970 214.000,132.800 213.777,132.930 213.439 C 133.048 213.131,133.034 212.767,132.898 212.631 C 132.326 212.059,132.100 195.664,132.640 193.900 C 132.938 192.925,134.000 193.021,134.000 194.024 M150.721 195.236 C 150.375 195.430,148.971 195.520,147.602 195.436 C 144.594 195.251,143.145 196.034,144.245 197.250 C 144.769 197.829,144.835 198.792,144.654 203.270 C 144.536 206.201,144.430 208.836,144.419 209.124 C 144.409 209.412,144.220 209.536,144.000 209.400 C 143.780 209.264,143.600 209.433,143.600 209.776 C 143.600 210.487,143.451 210.462,148.067 210.549 C 152.044 210.624,153.193 209.984,154.638 206.889 C 155.057 205.991,155.716 205.170,156.102 205.065 C 156.582 204.934,156.718 204.652,156.534 204.171 C 156.350 203.692,156.412 203.560,156.732 203.758 C 157.634 204.315,157.190 203.382,156.200 202.639 C 155.550 202.151,155.200 201.496,155.200 200.768 C 155.200 200.151,155.020 199.536,154.800 199.400 C 154.580 199.264,154.400 198.744,154.400 198.243 C 154.400 197.020,151.610 194.739,150.721 195.236 M278.280 196.500 C 278.456 196.775,279.050 197.254,279.600 197.564 C 280.470 198.055,280.538 198.053,280.123 197.551 C 279.036 196.235,280.237 195.881,281.948 197.013 C 283.496 198.038,284.327 200.000,283.213 200.000 C 282.999 200.000,282.923 200.256,283.044 200.569 C 283.294 201.221,282.073 202.000,280.803 202.000 C 280.239 202.000,280.048 201.832,280.235 201.500 C 280.461 201.100,280.410 201.100,279.979 201.500 C 279.682 201.775,279.135 202.000,278.763 202.000 C 278.390 202.000,277.982 202.270,277.855 202.600 C 277.217 204.262,276.000 202.105,276.000 199.313 C 276.000 196.899,277.417 195.151,278.280 196.500 M173.505 203.475 C 173.122 203.575,172.402 203.579,171.905 203.483 C 171.407 203.387,171.720 203.305,172.600 203.301 C 173.480 203.296,173.887 203.375,173.505 203.475 M66.975 219.200 C 66.975 225.250,67.031 227.725,67.099 224.700 C 67.167 221.675,67.167 216.725,67.099 213.700 C 67.031 210.675,66.975 213.150,66.975 219.200 M103.639 210.953 C 103.285 211.380,103.319 211.560,103.790 211.741 C 104.209 211.902,104.400 211.729,104.400 211.187 C 104.400 210.255,104.255 210.210,103.639 210.953 " stroke="none" fill="#8b53fb" fill-rule="evenodd"></path><path id="path2" d="M105.600 168.733 C 105.600 169.005,104.890 169.228,103.900 169.267 L 102.200 169.334 103.753 169.495 C 105.245 169.648,106.443 169.109,105.873 168.540 C 105.723 168.390,105.600 168.477,105.600 168.733 M107.400 168.800 C 107.250 169.043,107.828 169.198,108.876 169.194 C 110.137 169.189,110.439 169.084,110.000 168.800 C 109.215 168.293,107.714 168.293,107.400 168.800 M191.371 168.789 C 191.157 169.003,188.376 169.240,185.191 169.316 C 181.053 169.415,181.634 169.447,187.228 169.427 C 193.491 169.405,194.957 169.300,194.557 168.900 C 193.964 168.307,191.924 168.236,191.371 168.789 M196.600 168.800 C 196.464 169.020,196.734 169.200,197.200 169.200 C 197.666 169.200,197.936 169.020,197.800 168.800 C 197.664 168.580,197.394 168.400,197.200 168.400 C 197.006 168.400,196.736 168.580,196.600 168.800 M72.300 169.489 C 73.015 169.578,74.185 169.578,74.900 169.489 C 75.615 169.401,75.030 169.328,73.600 169.328 C 72.170 169.328,71.585 169.401,72.300 169.489 M81.723 169.499 C 84.541 169.568,89.041 169.568,91.723 169.499 C 94.405 169.430,92.100 169.373,86.600 169.373 C 81.100 169.374,78.905 169.430,81.723 169.499 M67.293 177.200 C 67.293 177.970,67.375 178.285,67.476 177.900 C 67.576 177.515,67.576 176.885,67.476 176.500 C 67.375 176.115,67.293 176.430,67.293 177.200 M264.867 194.258 C 264.163 195.023,263.542 197.200,264.028 197.200 C 264.233 197.200,264.400 196.899,264.400 196.531 C 264.400 196.164,264.688 195.544,265.041 195.155 C 265.394 194.765,265.619 194.274,265.541 194.063 C 265.463 193.851,265.160 193.940,264.867 194.258 M256.266 194.733 C 256.340 195.026,256.406 195.746,256.413 196.333 C 256.424 197.301,256.474 197.335,256.952 196.706 C 257.242 196.325,257.591 196.124,257.728 196.261 C 257.865 196.398,257.760 196.051,257.495 195.489 C 257.230 194.928,256.891 194.544,256.741 194.637 C 256.591 194.729,256.392 194.669,256.300 194.502 C 256.207 194.336,256.192 194.440,256.266 194.733 M251.600 195.624 C 251.600 195.857,251.375 195.933,251.100 195.794 C 250.825 195.655,250.870 195.779,251.200 196.070 C 251.530 196.362,251.800 196.825,251.800 197.100 C 251.800 197.375,251.980 197.600,252.200 197.600 C 252.420 197.600,252.582 197.420,252.560 197.200 C 252.538 196.980,252.493 196.440,252.460 196.000 C 252.399 195.191,251.600 194.841,251.600 195.624 M271.600 197.633 C 271.600 199.692,272.441 199.570,272.629 197.484 C 272.727 196.392,272.608 196.000,272.181 196.000 C 271.768 196.000,271.600 196.472,271.600 197.633 M277.096 196.580 C 276.713 196.859,276.406 197.428,276.413 197.844 C 276.425 198.557,276.455 198.561,276.957 197.900 C 277.249 197.515,277.693 197.200,277.944 197.200 C 278.195 197.200,278.400 197.031,278.400 196.824 C 278.400 196.164,277.813 196.055,277.096 196.580 M280.000 196.600 C 280.000 196.930,280.188 197.200,280.417 197.200 C 281.591 197.200,282.952 199.149,282.489 200.165 C 282.230 200.733,282.186 201.268,282.387 201.392 C 282.852 201.679,283.321 200.919,283.000 200.400 C 282.864 200.180,282.943 200.000,283.176 200.000 C 284.098 200.000,283.521 198.566,282.100 197.325 C 280.429 195.866,280.000 195.718,280.000 196.600 M257.459 198.034 C 257.297 198.383,257.427 199.463,257.747 200.434 C 258.067 201.405,258.445 202.920,258.588 203.800 C 258.996 206.311,260.374 207.595,261.654 206.656 C 262.398 206.110,263.041 203.200,262.418 203.200 C 262.188 203.200,262.000 203.830,262.000 204.600 C 262.000 205.883,261.902 206.000,260.821 206.000 L 259.642 206.000 259.654 203.510 C 259.663 201.494,259.513 200.897,258.865 200.372 C 258.425 200.016,257.995 199.202,257.909 198.562 C 257.793 197.701,257.676 197.564,257.459 198.034 M252.400 198.976 C 252.400 199.293,252.580 199.664,252.800 199.800 C 253.020 199.936,253.200 199.677,253.200 199.224 C 253.200 198.771,253.020 198.400,252.800 198.400 C 252.580 198.400,252.400 198.659,252.400 198.976 M276.589 201.899 C 276.907 203.166,277.100 203.433,277.448 203.085 C 277.827 202.706,277.244 200.800,276.749 200.800 C 276.473 200.800,276.415 201.204,276.589 201.899 M287.400 201.226 C 286.722 201.495,286.706 201.548,287.300 201.572 C 287.685 201.587,288.000 201.774,288.000 201.987 C 288.000 202.201,287.766 202.285,287.480 202.175 C 287.169 202.056,286.683 202.556,286.273 203.416 C 285.895 204.208,285.781 204.736,286.018 204.589 C 286.255 204.442,286.618 203.879,286.824 203.337 C 287.030 202.795,287.380 202.464,287.602 202.601 C 288.028 202.865,288.572 201.878,288.338 201.267 C 288.262 201.069,287.840 201.051,287.400 201.226 M253.854 202.198 C 253.981 202.526,254.245 202.696,254.442 202.574 C 255.007 202.225,254.860 201.600,254.213 201.600 C 253.856 201.600,253.715 201.835,253.854 202.198 M277.600 206.000 C 277.600 206.220,277.240 206.400,276.800 206.400 C 275.916 206.400,275.734 206.988,276.476 207.447 C 276.738 207.609,277.023 207.530,277.110 207.271 C 277.318 206.646,278.339 206.671,278.929 207.315 C 279.772 208.238,280.518 209.720,279.968 209.380 C 279.653 209.185,279.579 209.242,279.762 209.538 C 280.638 210.955,281.145 209.406,280.300 207.895 C 279.181 205.893,277.600 204.783,277.600 206.000 M255.602 209.654 C 255.595 210.508,256.694 212.313,257.076 212.077 C 257.378 211.890,257.210 211.407,256.564 210.600 C 256.036 209.940,255.603 209.514,255.602 209.654 M264.228 209.955 C 263.760 210.712,265.069 211.241,265.647 210.528 C 266.018 210.071,266.035 209.945,265.700 210.147 C 265.425 210.312,265.200 210.257,265.200 210.024 C 265.200 209.510,264.532 209.462,264.228 209.955 M286.561 211.016 C 286.606 211.325,286.769 211.702,286.922 211.855 C 287.471 212.404,287.183 212.800,286.233 212.800 C 285.701 212.800,284.981 212.909,284.633 213.043 C 283.417 213.509,284.015 214.000,285.800 214.000 C 287.164 214.000,287.600 213.849,287.600 213.376 C 287.600 213.033,287.780 212.864,288.000 213.000 C 288.510 213.315,288.516 212.564,288.011 211.621 C 287.518 210.699,286.449 210.253,286.561 211.016 M276.211 211.218 C 276.353 211.447,276.185 212.068,275.839 212.597 C 275.452 213.188,275.361 213.653,275.604 213.803 C 275.822 213.937,276.000 213.761,276.000 213.411 C 276.000 213.061,276.270 212.671,276.600 212.545 C 277.395 212.240,277.375 210.800,276.576 210.800 C 276.233 210.800,276.069 210.988,276.211 211.218 M263.600 213.200 C 263.600 213.947,263.707 214.053,264.080 213.680 C 264.453 213.307,264.453 213.093,264.080 212.720 C 263.707 212.347,263.600 212.453,263.600 213.200 M256.962 213.900 C 257.399 214.416,258.167 214.795,258.762 214.788 C 259.687 214.777,259.721 214.730,259.070 214.351 C 258.668 214.118,258.233 214.034,258.102 214.164 C 257.972 214.295,257.490 214.086,257.032 213.701 C 256.201 213.001,256.201 213.001,256.962 213.900 M67.372 218.530 C 67.260 218.822,67.222 220.757,67.287 222.830 L 67.406 226.600 67.603 222.299 C 67.798 218.038,67.765 217.504,67.372 218.530 M67.200 228.501 C 67.200 229.583,68.564 231.595,69.300 231.597 C 70.317 231.601,70.157 231.000,69.000 230.473 C 68.450 230.222,67.978 229.833,67.950 229.609 C 67.922 229.384,67.877 229.035,67.850 228.833 C 67.757 228.148,67.200 227.863,67.200 228.501 " stroke="none" fill="#744ed4" fill-rule="evenodd"></path><path id="path3" d="M67.600 169.243 C 67.600 169.971,67.751 170.045,68.700 169.781 C 70.243 169.353,74.873 169.238,91.300 169.217 C 100.555 169.206,105.600 169.059,105.600 168.800 C 105.600 168.539,99.000 168.400,86.600 168.400 L 67.600 168.400 67.600 169.243 M144.200 168.800 C 144.036 169.065,151.921 169.200,167.553 169.200 C 182.855 169.200,191.240 169.059,191.400 168.800 C 191.564 168.535,183.679 168.400,168.047 168.400 C 152.745 168.400,144.360 168.541,144.200 168.800 M194.400 168.757 C 194.400 169.224,195.568 169.667,196.036 169.378 C 196.741 168.942,196.388 168.400,195.400 168.400 C 194.850 168.400,194.400 168.561,194.400 168.757 M199.277 168.830 C 199.356 169.067,199.591 169.260,199.800 169.260 C 200.009 169.260,200.245 169.067,200.323 168.830 C 200.402 168.594,200.167 168.400,199.800 168.400 C 199.433 168.400,199.198 168.594,199.277 168.830 M67.043 175.433 C 66.670 176.403,66.755 180.400,67.147 180.400 C 67.338 180.400,67.473 179.140,67.447 177.600 C 67.395 174.532,67.393 174.520,67.043 175.433 M66.800 195.600 C 66.800 203.867,66.942 208.400,67.200 208.400 C 67.458 208.400,67.600 203.867,67.600 195.600 C 67.600 187.333,67.458 182.800,67.200 182.800 C 66.942 182.800,66.800 187.333,66.800 195.600 M250.800 192.000 C 250.800 192.220,251.070 192.400,251.400 192.400 C 251.730 192.400,252.000 192.220,252.000 192.000 C 252.000 191.780,251.730 191.600,251.400 191.600 C 251.070 191.600,250.800 191.780,250.800 192.000 M271.600 192.050 C 271.600 192.243,271.949 192.400,272.376 192.400 C 272.803 192.400,273.250 192.243,273.369 192.050 C 273.488 191.858,273.139 191.700,272.593 191.700 C 272.047 191.700,271.600 191.858,271.600 192.050 M146.400 192.825 C 146.400 193.031,147.150 193.200,148.067 193.200 C 150.041 193.200,149.977 193.002,147.900 192.682 C 147.069 192.554,146.400 192.618,146.400 192.825 M284.762 193.547 C 285.731 194.908,287.600 196.236,287.600 195.563 C 287.600 195.049,284.832 192.400,284.295 192.400 C 284.103 192.400,284.313 192.916,284.762 193.547 M264.612 193.317 C 264.441 193.712,264.413 194.147,264.551 194.284 C 264.957 194.690,265.284 194.120,265.097 193.331 C 264.932 192.633,264.910 192.632,264.612 193.317 M95.867 193.467 C 95.469 193.865,95.545 194.800,95.975 194.800 C 96.181 194.800,96.323 194.440,96.290 194.000 C 96.222 193.096,96.229 193.105,95.867 193.467 M256.400 194.024 C 256.400 194.477,256.580 194.736,256.800 194.600 C 257.020 194.464,257.200 194.093,257.200 193.776 C 257.200 193.459,257.020 193.200,256.800 193.200 C 256.580 193.200,256.400 193.571,256.400 194.024 M166.800 194.333 C 166.800 194.520,167.610 194.686,168.600 194.701 C 170.941 194.736,170.939 194.231,168.598 194.096 C 167.609 194.039,166.800 194.146,166.800 194.333 M269.200 197.000 C 269.200 197.550,269.380 198.000,269.600 198.000 C 269.820 198.000,270.000 197.550,270.000 197.000 C 270.000 196.450,269.820 196.000,269.600 196.000 C 269.380 196.000,269.200 196.450,269.200 197.000 M287.600 196.976 C 287.600 197.867,288.226 198.044,288.292 197.172 C 288.324 196.748,288.181 196.400,287.975 196.400 C 287.769 196.400,287.600 196.659,287.600 196.976 M115.929 197.500 C 115.838 197.885,115.880 199.460,116.022 201.000 L 116.281 203.800 116.298 200.300 C 116.314 196.792,116.236 196.194,115.929 197.500 M262.800 199.000 C 262.800 199.550,262.980 200.000,263.200 200.000 C 263.420 200.000,263.600 199.550,263.600 199.000 C 263.600 198.450,263.420 198.000,263.200 198.000 C 262.980 198.000,262.800 198.450,262.800 199.000 M258.000 199.176 C 258.000 199.629,258.180 200.000,258.400 200.000 C 258.620 200.000,258.800 199.741,258.800 199.424 C 258.800 199.107,258.620 198.736,258.400 198.600 C 258.180 198.464,258.000 198.723,258.000 199.176 M114.091 203.000 C 114.084 205.161,114.234 206.703,114.439 206.576 C 114.902 206.289,114.915 199.200,114.452 199.200 C 114.260 199.200,114.098 200.910,114.091 203.000 M90.267 201.067 C 89.870 201.464,89.944 204.000,90.353 204.000 C 90.547 204.000,90.716 203.280,90.728 202.400 C 90.751 200.738,90.711 200.623,90.267 201.067 M267.600 202.267 C 267.600 203.441,268.083 203.242,268.274 201.990 C 268.341 201.555,268.216 201.200,267.997 201.200 C 267.779 201.200,267.600 201.680,267.600 202.267 M287.296 202.395 C 287.023 202.832,286.800 203.396,286.800 203.648 C 286.800 203.900,286.305 204.533,285.700 205.053 C 285.095 205.573,284.780 205.999,285.000 205.999 C 285.802 205.999,287.600 204.084,287.600 203.230 C 287.600 202.747,287.778 202.463,287.995 202.597 C 288.222 202.737,288.289 202.577,288.153 202.221 C 287.856 201.449,287.891 201.441,287.296 202.395 M166.800 202.229 C 166.800 202.354,167.070 202.727,167.400 203.057 C 167.730 203.387,168.000 203.492,168.000 203.290 C 168.000 203.088,168.405 202.727,168.900 202.488 C 169.723 202.091,169.672 202.052,168.300 202.027 C 167.475 202.012,166.800 202.103,166.800 202.229 M170.500 202.265 C 169.367 202.722,170.134 202.992,172.199 202.863 C 173.410 202.788,174.400 202.563,174.400 202.363 C 174.400 201.986,171.379 201.910,170.500 202.265 M91.656 204.587 C 91.781 207.007,92.400 207.389,92.400 205.047 C 92.400 204.057,92.211 203.130,91.980 202.987 C 91.704 202.817,91.593 203.369,91.656 204.587 M261.467 203.467 C 261.045 203.888,261.156 206.000,261.600 206.000 C 261.820 206.000,262.000 205.370,262.000 204.600 C 262.000 203.161,261.927 203.006,261.467 203.467 M104.875 204.025 C 104.971 204.314,105.286 204.629,105.575 204.725 C 105.875 204.825,106.025 204.675,105.925 204.375 C 105.829 204.086,105.514 203.771,105.225 203.675 C 104.925 203.575,104.775 203.725,104.875 204.025 M259.600 204.800 C 259.600 205.460,259.783 206.000,260.006 206.000 C 260.230 206.000,260.372 205.460,260.321 204.800 C 260.271 204.140,260.088 203.600,259.915 203.600 C 259.742 203.600,259.600 204.140,259.600 204.800 M115.640 206.276 C 115.618 206.978,115.780 207.664,116.000 207.800 C 116.460 208.084,116.460 207.436,116.000 206.000 C 115.694 205.045,115.678 205.057,115.640 206.276 M105.449 207.130 C 105.272 207.642,105.233 208.167,105.363 208.297 C 105.778 208.711,106.070 208.100,105.918 207.134 L 105.771 206.200 105.449 207.130 M155.600 207.224 C 155.600 207.677,155.780 207.936,156.000 207.800 C 156.220 207.664,156.400 207.293,156.400 206.976 C 156.400 206.659,156.220 206.400,156.000 206.400 C 155.780 206.400,155.600 206.771,155.600 207.224 M91.600 208.878 C 91.600 209.102,91.865 209.184,92.189 209.059 C 92.516 208.934,92.949 209.137,93.159 209.513 C 93.369 209.887,93.687 210.046,93.867 209.867 C 94.046 209.687,93.835 209.335,93.397 209.086 C 92.316 208.469,91.600 208.387,91.600 208.878 M67.354 213.600 C 67.354 216.350,67.418 217.475,67.496 216.100 C 67.574 214.725,67.574 212.475,67.496 211.100 C 67.418 209.725,67.354 210.850,67.354 213.600 M104.400 209.504 C 104.400 209.671,104.760 210.032,105.200 210.307 C 105.640 210.582,106.000 211.165,106.000 211.603 C 106.000 212.042,106.135 212.400,106.300 212.400 C 106.677 212.400,106.633 210.300,106.243 209.669 C 105.924 209.154,104.400 209.017,104.400 209.504 M114.000 210.600 C 114.000 211.150,114.180 211.600,114.400 211.600 C 114.620 211.600,114.800 211.150,114.800 210.600 C 114.800 210.050,114.620 209.600,114.400 209.600 C 114.180 209.600,114.000 210.050,114.000 210.600 M115.600 211.095 C 115.600 211.484,117.214 212.519,117.451 212.282 C 117.547 212.186,117.169 211.810,116.612 211.445 C 116.056 211.080,115.600 210.922,115.600 211.095 M264.400 212.224 C 264.400 212.804,264.573 213.140,264.800 213.000 C 265.020 212.864,265.200 212.403,265.200 211.976 C 265.200 211.549,265.020 211.200,264.800 211.200 C 264.580 211.200,264.400 211.661,264.400 212.224 M96.546 212.087 C 96.416 212.297,96.521 212.679,96.779 212.935 C 97.136 213.289,97.190 213.249,97.005 212.764 C 96.766 212.134,97.062 212.098,100.324 212.358 C 100.612 212.381,100.728 212.593,100.582 212.830 C 100.436 213.066,100.695 213.022,101.158 212.733 C 101.621 212.444,102.000 212.069,102.000 211.899 C 102.000 211.453,96.828 211.631,96.546 212.087 M118.000 212.025 C 118.000 212.231,118.360 212.400,118.800 212.400 C 119.240 212.400,119.600 212.258,119.600 212.085 C 119.600 211.912,119.240 211.743,118.800 211.710 C 118.360 211.677,118.000 211.819,118.000 212.025 M123.600 212.000 C 123.132 212.302,123.243 212.389,124.100 212.394 C 124.705 212.397,125.200 212.220,125.200 212.000 C 125.200 211.494,124.383 211.494,123.600 212.000 M281.200 212.000 C 281.200 212.220,281.380 212.400,281.600 212.400 C 281.820 212.400,282.000 212.760,282.000 213.200 C 282.000 213.640,282.240 214.000,282.533 214.000 C 283.563 214.000,283.577 213.471,282.573 212.540 C 281.455 211.503,281.200 211.403,281.200 212.000 M276.267 212.667 C 275.779 213.154,275.991 214.000,276.600 214.000 C 276.933 214.000,277.200 213.644,277.200 213.200 C 277.200 212.403,276.774 212.160,276.267 212.667 M66.962 230.156 C 66.671 230.914,66.935 231.314,67.812 231.443 C 68.544 231.550,68.540 231.219,67.798 230.239 C 67.270 229.540,67.200 229.533,66.962 230.156 M199.078 230.656 C 198.704 231.029,199.155 231.600,199.824 231.600 C 200.141 231.600,200.400 231.330,200.400 231.000 C 200.400 230.398,199.556 230.178,199.078 230.656 " stroke="none" fill="#7c54c4" fill-rule="evenodd"></path><path id="path4" d="M105.897 168.900 C 105.775 169.261,104.458 169.400,101.164 169.400 C 72.441 169.400,66.368 169.702,67.727 171.060 C 67.874 171.208,68.325 171.030,68.729 170.664 C 69.389 170.067,71.266 169.996,87.231 169.965 C 97.004 169.946,105.900 169.790,107.000 169.618 C 108.100 169.447,108.584 169.283,108.076 169.253 C 107.568 169.224,107.264 169.020,107.400 168.800 C 107.536 168.580,107.292 168.400,106.857 168.400 C 106.422 168.400,105.990 168.625,105.897 168.900 M139.826 168.758 C 139.704 168.955,139.888 169.225,140.235 169.358 C 141.234 169.741,141.600 169.645,141.600 169.000 C 141.600 168.356,140.193 168.164,139.826 168.758 M142.493 169.200 C 141.984 170.015,189.674 170.472,191.682 169.672 C 192.184 169.472,154.850 169.085,145.076 169.188 C 144.427 169.195,144.057 169.031,144.200 168.800 C 144.336 168.580,144.120 168.400,143.720 168.400 C 143.320 168.400,142.768 168.760,142.493 169.200 M198.586 169.492 L 199.580 170.414 199.591 187.488 C 199.598 198.581,199.746 204.706,200.012 204.972 C 200.291 205.251,200.410 199.621,200.388 187.281 C 200.367 175.950,200.213 169.269,199.975 169.416 C 199.765 169.545,199.491 169.382,199.365 169.053 C 199.239 168.724,198.788 168.481,198.364 168.513 C 197.657 168.566,197.675 168.648,198.586 169.492 M132.105 169.087 C 132.714 169.179,133.614 169.177,134.105 169.082 C 134.597 168.987,134.100 168.911,133.000 168.914 C 131.900 168.917,131.497 168.995,132.105 169.087 M194.389 169.759 C 194.876 169.977,195.703 169.962,196.496 169.719 C 197.723 169.343,197.675 169.321,195.693 169.360 C 194.098 169.390,193.781 169.487,194.389 169.759 M144.633 191.947 C 142.784 192.348,142.853 193.200,144.733 193.200 C 145.613 193.200,146.393 193.033,146.467 192.830 C 146.548 192.603,147.361 192.603,148.566 192.830 C 150.779 193.247,151.374 193.009,150.223 192.167 C 149.434 191.591,146.765 191.486,144.633 191.947 M168.631 191.972 C 165.051 192.387,165.914 193.200,169.933 193.200 C 172.422 193.200,173.605 193.046,173.767 192.700 C 173.953 192.300,174.047 192.300,174.233 192.700 C 174.362 192.975,175.007 193.200,175.667 193.200 C 176.399 193.200,176.806 193.381,176.712 193.664 C 176.609 193.973,175.530 194.098,173.479 194.038 C 171.511 193.980,170.400 194.102,170.400 194.374 C 170.400 194.608,169.995 194.787,169.500 194.772 C 168.641 194.745,168.637 194.728,169.400 194.400 C 170.624 193.874,169.632 193.937,168.128 194.480 C 165.062 195.589,167.490 196.546,170.650 195.474 C 171.502 195.185,173.010 194.981,174.000 195.021 C 174.990 195.062,175.980 194.954,176.200 194.781 C 176.420 194.609,176.780 194.445,177.000 194.416 C 177.476 194.354,177.294 192.770,176.746 192.200 C 176.316 191.753,171.651 191.622,168.631 191.972 M252.000 192.058 C 252.000 192.246,251.719 192.400,251.376 192.400 C 250.899 192.400,250.781 192.755,250.876 193.900 C 251.027 195.721,251.724 195.731,252.000 193.916 C 252.363 191.526,254.794 191.979,255.665 194.600 L 256.331 196.600 256.265 194.200 L 256.200 191.800 254.100 191.758 C 252.945 191.735,252.000 191.870,252.000 192.058 M265.810 192.242 C 265.290 192.622,265.572 192.702,267.283 192.656 C 269.480 192.598,270.442 193.718,269.234 194.926 C 268.617 195.543,268.697 196.000,269.424 196.000 C 269.767 196.000,269.943 195.831,269.815 195.625 C 269.688 195.418,269.871 195.088,270.222 194.892 C 270.660 194.646,270.820 194.105,270.730 193.167 C 270.589 191.681,267.397 191.081,265.810 192.242 M273.358 192.068 C 273.245 192.251,272.803 192.400,272.376 192.400 C 271.547 192.400,271.188 195.298,271.958 195.774 C 272.365 196.026,272.800 195.101,272.800 193.981 C 272.800 192.833,273.965 192.444,277.227 192.504 C 278.862 192.534,280.555 192.358,280.988 192.114 C 281.603 191.767,280.873 191.677,277.669 191.703 C 275.411 191.721,273.471 191.885,273.358 192.068 M95.733 192.630 C 95.569 193.057,95.196 193.185,94.570 193.028 C 93.560 192.775,92.400 193.983,92.400 195.289 C 92.400 195.680,92.229 196.000,92.020 196.000 C 87.481 196.000,89.673 212.639,94.230 212.775 C 94.687 212.789,95.442 213.205,95.908 213.700 C 96.958 214.815,101.103 215.066,100.867 214.000 C 100.793 213.670,100.867 213.533,101.030 213.697 C 101.347 214.013,102.400 213.314,102.400 212.786 C 102.400 212.418,101.351 212.515,100.945 212.922 C 100.017 213.849,94.310 212.618,94.071 211.439 C 93.904 210.617,94.080 210.634,95.800 211.600 C 97.187 212.379,98.341 212.731,97.258 212.044 C 96.925 211.833,97.888 211.678,99.758 211.642 C 101.706 211.604,102.800 211.738,102.800 212.015 C 102.800 212.253,102.988 212.331,103.218 212.189 C 103.784 211.839,105.600 213.074,105.600 213.809 C 105.600 214.134,105.960 214.400,106.400 214.400 C 107.345 214.400,107.447 213.504,106.600 212.657 C 106.270 212.327,106.000 211.784,106.000 211.451 C 106.000 211.118,105.595 210.546,105.100 210.181 C 104.497 209.736,104.365 209.454,104.700 209.325 C 104.975 209.220,105.200 208.846,105.200 208.495 C 105.200 208.144,105.407 207.286,105.659 206.587 C 106.236 204.993,104.965 203.367,103.505 203.830 C 102.669 204.096,102.673 204.117,103.725 204.884 C 105.206 205.962,105.082 207.193,103.300 209.116 C 100.570 212.062,95.725 211.287,93.156 207.494 C 93.021 207.295,92.801 207.420,92.667 207.770 C 92.516 208.163,92.725 208.596,93.211 208.900 C 93.910 209.336,94.349 210.800,93.782 210.800 C 93.386 210.800,91.600 208.845,91.600 208.413 C 91.600 207.991,91.373 207.455,90.426 205.646 C 90.020 204.871,90.027 204.629,90.463 204.353 C 90.863 204.099,90.872 204.011,90.500 204.006 C 89.899 203.999,89.811 201.364,90.400 201.000 C 90.620 200.864,90.800 200.213,90.800 199.553 C 90.800 198.855,90.967 198.456,91.200 198.600 C 91.430 198.742,91.605 198.369,91.611 197.724 C 91.619 196.919,92.005 196.316,92.972 195.600 C 93.714 195.050,94.221 194.437,94.099 194.238 C 93.977 194.039,94.084 194.005,94.338 194.162 C 94.592 194.319,94.800 194.227,94.800 193.957 C 94.800 193.687,94.918 193.585,95.063 193.730 C 95.208 193.875,95.581 193.782,95.893 193.523 C 97.844 191.904,106.000 194.402,106.000 196.619 C 106.000 196.892,106.270 197.218,106.600 197.345 C 107.502 197.691,107.325 196.823,106.146 195.122 C 105.412 194.063,104.629 193.477,103.563 193.190 C 102.722 192.964,101.926 192.603,101.793 192.389 C 101.364 191.694,96.011 191.907,95.733 192.630 M113.956 192.876 C 113.037 194.584,113.122 212.159,114.053 212.740 C 114.689 213.138,114.800 213.088,114.800 212.403 C 114.800 211.962,114.620 211.600,114.400 211.600 C 114.180 211.600,114.000 211.150,114.000 210.600 C 114.000 210.050,114.180 209.600,114.400 209.600 C 114.620 209.600,114.800 208.869,114.800 207.976 C 114.800 207.083,114.638 206.453,114.439 206.576 C 114.234 206.703,114.084 205.161,114.091 203.000 C 114.098 200.910,114.260 199.200,114.452 199.200 C 114.643 199.200,114.800 198.559,114.800 197.776 C 114.800 196.929,114.638 196.453,114.400 196.600 C 114.180 196.736,114.000 196.657,114.000 196.424 C 114.000 196.191,114.180 196.000,114.400 196.000 C 114.620 196.000,114.800 195.370,114.800 194.600 C 114.800 193.830,114.980 193.200,115.200 193.200 C 115.631 193.200,115.689 193.621,115.646 196.400 C 115.624 197.784,115.702 198.015,115.981 197.400 C 116.340 196.607,116.344 196.607,116.372 197.420 C 116.387 197.871,116.197 198.443,115.950 198.690 C 115.468 199.172,115.671 205.379,116.226 207.163 C 116.439 207.847,116.392 208.042,116.063 207.839 C 115.021 207.195,115.534 210.739,116.582 211.425 C 117.838 212.248,118.737 211.792,117.690 210.864 C 117.011 210.263,116.935 209.496,116.890 202.800 C 116.819 192.206,116.822 192.226,115.527 192.076 C 114.740 191.985,114.321 192.199,113.956 192.876 M283.200 192.776 C 283.200 192.984,284.100 194.092,285.200 195.239 C 287.125 197.247,287.427 197.979,287.294 200.326 C 287.263 200.883,287.433 201.190,287.721 201.095 C 288.347 200.890,288.583 198.423,288.029 197.869 C 287.793 197.633,287.600 197.194,287.600 196.894 C 287.600 196.414,283.824 192.400,283.373 192.400 C 283.278 192.400,283.200 192.569,283.200 192.776 M132.640 193.900 C 132.392 194.711,132.265 210.163,132.496 211.492 C 132.989 214.337,133.200 211.816,133.200 203.067 C 133.200 193.632,133.120 192.329,132.640 193.900 M142.182 193.629 C 142.037 193.864,141.918 197.419,141.919 201.529 C 141.919 205.638,141.774 209.273,141.596 209.606 C 141.314 210.135,142.080 212.800,142.515 212.800 C 142.600 212.800,142.707 208.390,142.753 203.000 C 142.832 193.602,142.776 192.669,142.182 193.629 M152.200 193.762 C 152.860 194.052,153.563 194.196,153.762 194.083 C 153.961 193.969,154.014 194.054,153.880 194.271 C 153.746 194.487,154.250 194.906,155.000 195.200 C 155.750 195.494,156.280 195.870,156.178 196.035 C 156.076 196.200,156.264 196.607,156.596 196.939 C 156.928 197.271,157.200 197.916,157.200 198.371 C 157.200 198.827,157.380 199.200,157.600 199.200 C 158.433 199.200,158.087 207.140,157.214 208.077 C 156.455 208.892,156.455 209.600,157.214 209.600 C 159.028 209.600,159.895 200.931,158.379 197.959 C 157.942 197.101,157.407 196.400,157.192 196.400 C 156.976 196.400,156.800 196.139,156.800 195.820 C 156.800 194.761,154.256 193.198,152.562 193.218 L 151.000 193.236 152.200 193.762 M265.465 193.927 C 265.570 194.328,265.373 194.890,265.028 195.177 C 264.683 195.463,264.400 196.036,264.400 196.449 C 264.400 196.862,264.220 197.200,264.000 197.200 C 263.780 197.200,263.600 197.695,263.601 198.300 C 263.602 198.905,263.208 200.144,262.726 201.054 C 261.869 202.672,261.866 202.723,262.603 203.454 C 263.314 204.159,263.340 204.160,263.080 203.473 C 262.921 203.053,263.136 202.019,263.590 201.023 C 264.021 200.075,264.493 198.561,264.637 197.657 C 264.782 196.754,265.147 195.810,265.450 195.559 C 266.072 195.042,266.185 193.761,265.637 193.423 C 265.438 193.300,265.360 193.527,265.465 193.927 M96.076 194.624 C 95.788 194.950,95.355 195.096,95.114 194.947 C 94.852 194.785,94.791 194.861,94.962 195.138 C 95.119 195.392,95.033 195.600,94.770 195.600 C 94.044 195.600,92.401 197.693,92.400 198.620 C 92.400 199.071,92.175 199.682,91.900 199.979 C 91.500 200.410,91.500 200.461,91.900 200.235 C 92.534 199.877,92.535 200.195,91.904 201.205 C 91.509 201.838,91.509 202.162,91.904 202.795 C 92.177 203.232,92.400 204.232,92.400 205.018 C 92.400 205.933,92.554 206.352,92.829 206.182 C 93.095 206.017,93.186 204.948,93.069 203.358 C 92.962 201.918,93.049 200.693,93.267 200.559 C 93.480 200.427,93.566 200.089,93.459 199.808 C 93.351 199.527,93.464 199.096,93.711 198.849 C 93.958 198.602,94.349 197.841,94.580 197.157 C 95.242 195.199,99.300 194.084,101.024 195.387 C 101.451 195.710,102.115 195.980,102.500 195.987 C 102.885 195.994,103.200 196.239,103.200 196.530 C 103.200 196.822,103.650 197.483,104.200 198.000 C 104.750 198.517,105.200 198.796,105.200 198.621 C 105.200 198.445,105.442 198.503,105.737 198.748 C 106.032 198.993,106.392 199.075,106.537 198.930 C 107.041 198.426,106.795 198.000,106.000 198.000 C 105.545 198.000,105.200 197.733,105.200 197.382 C 105.200 196.708,103.865 195.292,102.483 194.500 C 101.240 193.787,96.738 193.874,96.076 194.624 M143.754 194.577 C 143.295 195.771,143.724 196.619,144.430 195.913 C 144.901 195.441,145.658 195.320,147.430 195.430 C 150.264 195.606,151.240 195.369,150.937 194.580 C 150.616 193.744,144.074 193.742,143.754 194.577 M134.267 194.667 C 133.821 195.112,133.951 211.200,134.400 211.200 C 134.654 211.200,134.800 208.133,134.800 202.800 C 134.800 198.180,134.740 194.400,134.667 194.400 C 134.593 194.400,134.413 194.520,134.267 194.667 M164.185 196.163 C 163.896 198.090,164.248 200.400,164.832 200.400 C 165.034 200.400,165.200 199.050,165.200 197.400 C 165.200 194.107,164.602 193.379,164.185 196.163 M152.900 196.115 C 153.786 196.874,154.400 197.759,154.400 198.276 C 154.400 198.758,154.580 199.264,154.800 199.400 C 155.020 199.536,155.200 200.137,155.200 200.735 C 155.200 201.333,155.562 202.132,156.005 202.511 C 156.939 203.311,157.486 203.429,156.886 202.700 C 156.660 202.425,156.421 201.480,156.356 200.600 C 156.177 198.176,153.618 194.778,152.000 194.816 C 151.644 194.824,152.010 195.353,152.900 196.115 M268.563 196.741 C 268.906 197.295,268.077 199.907,267.238 200.919 C 266.911 201.314,266.660 202.252,266.681 203.003 C 266.703 203.754,266.468 204.578,266.160 204.833 C 265.852 205.089,265.600 205.625,265.600 206.025 C 265.600 206.425,265.441 206.851,265.247 206.971 C 264.724 207.294,264.942 209.714,265.511 209.904 C 266.098 210.099,266.179 208.558,265.600 208.200 C 265.006 207.833,265.115 207.318,265.845 207.038 C 266.313 206.859,266.423 206.962,266.249 207.416 C 266.100 207.806,266.173 207.941,266.443 207.773 C 266.682 207.626,266.798 206.970,266.702 206.316 C 266.591 205.557,266.722 205.051,267.064 204.920 C 267.682 204.683,267.799 203.200,267.200 203.200 C 266.980 203.200,266.800 203.009,266.800 202.776 C 266.800 202.543,266.980 202.464,267.200 202.600 C 267.420 202.736,267.600 202.477,267.600 202.024 C 267.600 201.571,267.780 201.200,268.000 201.200 C 268.220 201.200,268.400 200.750,268.400 200.200 C 268.400 199.650,268.580 199.200,268.800 199.200 C 269.357 199.200,269.303 196.911,268.738 196.562 C 268.451 196.384,268.385 196.452,268.563 196.741 M143.600 202.927 C 143.600 206.646,143.761 209.252,144.000 209.400 C 144.220 209.536,144.409 209.412,144.421 209.124 C 144.871 197.676,144.872 197.758,144.233 197.227 C 143.660 196.752,143.600 197.296,143.600 202.927 M256.800 197.976 C 256.800 198.623,256.963 199.254,257.163 199.377 C 257.362 199.500,257.436 199.261,257.328 198.846 C 257.219 198.430,257.326 197.969,257.565 197.822 C 258.199 197.430,258.097 196.800,257.400 196.800 C 257.003 196.800,256.800 197.197,256.800 197.976 M276.046 199.329 C 276.003 201.499,276.045 201.612,276.665 200.992 C 277.229 200.428,277.244 200.268,276.765 199.933 C 276.332 199.631,276.316 199.492,276.700 199.336 C 276.975 199.225,277.200 198.868,277.200 198.543 C 277.200 198.218,277.034 198.056,276.830 198.181 C 276.627 198.307,276.378 198.093,276.277 197.705 C 276.176 197.317,276.072 198.048,276.046 199.329 M116.289 202.500 C 116.201 203.215,116.128 202.630,116.128 201.200 C 116.128 199.770,116.201 199.185,116.289 199.900 C 116.378 200.615,116.378 201.785,116.289 202.500 M272.100 199.065 C 271.728 199.215,271.600 200.999,271.600 206.057 C 271.600 210.482,271.739 212.761,272.000 212.600 C 272.220 212.464,272.400 212.723,272.400 213.176 C 272.400 213.629,272.600 214.000,272.843 214.000 C 273.144 214.000,273.176 213.645,272.943 212.900 C 272.755 212.295,272.645 208.875,272.701 205.300 C 272.756 201.725,272.756 198.814,272.701 198.832 C 272.645 198.849,272.375 198.954,272.100 199.065 M253.700 200.697 C 253.425 200.790,253.221 201.347,253.246 201.933 C 253.276 202.611,253.360 202.745,253.476 202.300 C 253.576 201.915,253.915 201.600,254.229 201.600 C 254.885 201.600,254.993 202.234,254.400 202.600 C 254.180 202.736,254.000 203.287,254.000 203.824 C 254.000 204.361,254.180 204.800,254.400 204.800 C 254.620 204.800,254.779 204.935,254.753 205.100 C 254.596 206.091,254.860 207.210,255.200 207.000 C 255.561 206.777,255.787 207.851,255.637 209.070 C 255.605 209.328,255.790 209.670,256.049 209.830 C 256.687 210.224,256.189 206.456,255.403 204.941 C 255.086 204.331,254.928 203.429,255.052 202.937 C 255.311 201.902,254.434 200.447,253.700 200.697 M166.800 201.423 C 166.800 201.822,167.262 202.002,168.300 202.006 C 169.474 202.011,169.670 202.105,169.200 202.441 C 168.737 202.771,168.829 202.805,169.600 202.586 C 171.435 202.066,174.095 201.907,174.349 202.302 C 174.738 202.906,176.304 203.280,176.579 202.833 C 177.093 202.002,174.394 201.180,170.600 201.013 C 167.478 200.875,166.800 200.948,166.800 201.423 M164.243 201.832 C 163.926 202.658,164.401 205.600,164.851 205.600 C 165.043 205.600,165.200 204.610,165.200 203.400 C 165.200 201.275,164.744 200.527,164.243 201.832 M286.480 202.080 C 286.216 202.344,286.000 202.794,286.000 203.080 C 286.000 203.366,285.640 203.960,285.200 204.400 L 284.400 205.200 285.267 205.200 C 285.743 205.200,286.021 205.087,285.883 204.949 C 285.588 204.654,286.712 202.332,287.356 201.906 C 287.644 201.716,287.652 201.610,287.380 201.606 C 287.149 201.603,286.744 201.816,286.480 202.080 M167.023 203.510 C 166.900 203.633,166.800 203.986,166.800 204.294 C 166.800 204.960,168.461 204.833,168.685 204.151 C 168.840 203.679,167.407 203.126,167.023 203.510 M171.905 203.483 C 172.402 203.579,173.122 203.575,173.505 203.475 C 173.887 203.375,173.480 203.296,172.600 203.301 C 171.720 203.305,171.407 203.387,171.905 203.483 M106.800 205.576 C 106.800 206.689,106.980 207.600,107.200 207.600 C 107.420 207.600,107.600 206.801,107.600 205.824 C 107.600 204.847,107.420 203.936,107.200 203.800 C 106.953 203.648,106.800 204.329,106.800 205.576 M154.638 206.872 C 153.150 210.094,152.075 210.655,147.551 210.567 C 144.412 210.506,143.600 210.604,143.600 211.045 C 143.600 211.484,144.494 211.600,147.861 211.600 C 152.979 211.600,155.563 210.296,155.588 207.700 C 155.594 206.985,155.780 206.400,156.000 206.400 C 156.220 206.400,156.400 206.130,156.400 205.800 C 156.400 204.630,155.389 205.244,154.638 206.872 M164.183 206.499 C 163.846 207.379,164.116 209.207,164.600 209.312 C 165.148 209.432,165.359 206.799,164.842 206.282 C 164.554 205.994,164.351 206.061,164.183 206.499 M199.750 207.786 C 199.276 209.021,199.391 213.715,199.900 213.892 C 200.275 214.023,200.400 213.206,200.400 210.633 C 200.400 207.321,200.224 206.550,199.750 207.786 M276.000 209.013 C 276.000 210.724,276.443 211.302,277.028 210.355 C 277.179 210.111,277.054 209.737,276.751 209.525 C 276.325 209.227,276.313 209.093,276.700 208.936 C 277.390 208.656,277.328 207.735,276.600 207.455 C 276.122 207.272,276.000 207.588,276.000 209.013 M284.800 208.376 C 284.800 208.803,284.980 209.264,285.200 209.400 C 285.420 209.536,285.600 209.975,285.600 210.375 C 285.600 210.775,285.834 211.296,286.120 211.534 C 286.523 211.868,286.640 211.743,286.640 210.983 C 286.640 210.442,286.460 210.000,286.240 210.000 C 286.015 210.000,286.048 209.792,286.315 209.525 C 286.681 209.159,286.639 208.885,286.133 208.325 C 285.282 207.386,284.800 207.404,284.800 208.376 M280.800 209.200 C 280.800 209.420,281.001 209.600,281.247 209.600 C 281.506 209.600,281.600 209.958,281.470 210.452 C 281.257 211.270,282.075 212.592,282.520 212.147 C 282.638 212.028,282.923 212.283,283.154 212.713 C 283.384 213.143,283.458 213.608,283.319 213.747 C 283.180 213.886,283.277 214.000,283.533 214.000 C 283.790 214.000,284.000 213.825,284.000 213.611 C 284.000 213.398,284.585 213.040,285.300 212.816 L 286.600 212.409 285.167 212.610 C 283.561 212.835,282.887 212.298,282.017 210.100 C 281.531 208.871,280.800 208.330,280.800 209.200 M155.349 210.515 C 154.101 211.857,152.907 212.541,151.728 212.589 C 149.665 212.674,149.670 213.194,151.733 213.260 C 152.760 213.293,153.823 213.338,154.095 213.360 C 154.367 213.382,154.826 212.905,155.116 212.300 C 155.406 211.695,155.814 211.200,156.022 211.200 C 156.230 211.200,156.400 210.930,156.400 210.600 C 156.400 209.883,155.969 209.849,155.349 210.515 M104.400 211.187 C 104.400 211.729,104.209 211.902,103.790 211.741 C 103.319 211.560,103.285 211.380,103.639 210.953 C 104.255 210.210,104.400 210.255,104.400 211.187 M263.789 211.234 C 263.641 211.700,263.695 212.255,263.908 212.468 C 264.159 212.719,264.366 212.488,264.494 211.818 C 264.738 210.544,264.160 210.065,263.789 211.234 M123.384 211.227 C 123.017 211.820,123.362 212.066,124.140 211.768 C 124.501 211.629,124.696 211.355,124.574 211.158 C 124.275 210.674,123.705 210.706,123.384 211.227 M175.475 211.888 C 176.242 211.983,176.821 212.317,176.929 212.723 C 177.056 213.204,177.121 213.139,177.154 212.500 C 177.194 211.708,177.020 211.608,175.700 211.664 C 174.259 211.726,174.250 211.734,175.475 211.888 M257.200 213.000 C 257.200 213.652,257.424 214.000,257.843 214.000 C 258.265 214.000,258.402 213.782,258.243 213.367 C 258.109 213.019,258.000 212.569,258.000 212.367 C 258.000 212.165,257.820 212.000,257.600 212.000 C 257.380 212.000,257.200 212.450,257.200 213.000 M274.900 213.065 C 274.235 213.333,274.259 214.000,274.933 214.000 C 275.227 214.000,275.467 213.730,275.467 213.400 C 275.467 213.070,275.452 212.814,275.433 212.832 C 275.415 212.849,275.175 212.954,274.900 213.065 M132.800 213.600 C 132.800 213.820,133.070 214.000,133.400 214.000 C 133.730 214.000,134.000 213.820,134.000 213.600 C 134.000 213.380,133.730 213.200,133.400 213.200 C 133.070 213.200,132.800 213.380,132.800 213.600 M199.513 225.100 L 199.400 229.800 198.018 230.247 C 196.102 230.866,195.979 231.600,197.790 231.600 C 198.721 231.600,199.152 231.446,198.983 231.173 C 198.838 230.938,199.081 230.652,199.523 230.536 C 200.418 230.302,200.906 220.400,200.023 220.400 C 199.788 220.400,199.579 222.328,199.513 225.100 M75.300 230.665 C 74.476 230.998,74.735 231.600,75.700 231.594 C 76.611 231.588,78.207 230.818,77.333 230.806 C 77.076 230.803,76.626 230.724,76.333 230.632 C 76.040 230.539,75.575 230.554,75.300 230.665 " stroke="none" fill="#825ed6" fill-rule="evenodd"></path></g></svg>